<?xml version="1.0" encoding="UTF-8"?>
<svg width="168px" height="169px" viewBox="0 0 168 169" version="1.1" xmlns="http://www.w3.org/2000/svg" xmlns:xlink="http://www.w3.org/1999/xlink">
    <!-- Generator: Sketch 47.1 (45422) - http://www.bohemiancoding.com/sketch -->
    <title>01</title>
    <desc>Created with Sketch.</desc>
    <defs>
        <polygon id="path-1" points="90.0678873 1.10734951 1.29483824 1.10734951 1.29483824 13.8348961 90.0678873 13.8348961 90.0678873 1.10734951"></polygon>
        <polygon id="path-3" points="1.29450686 13.2815534 90.0675559 13.2815534 90.0675559 0.553342718 1.29450686 0.553342718 1.29450686 13.2815534"></polygon>
        <polygon id="path-5" points="0 -0.000166019417 0 12.1740379 167.57808 12.1740379 167.57808 -0.000166019417 6.7364032e-20 -0.000166019417"></polygon>
    </defs>
    <g id="Symbols" stroke="none" stroke-width="1" fill="none" fill-rule="evenodd">
        <g id="Content.Landing" transform="translate(-142.000000, -819.000000)">
            <g id="Content">
                <g id="Stack">
                    <g id="block.Text" transform="translate(105.000000, 660.000000)">
                        <g id="block.Features" transform="translate(0.000000, 110.000000)">
                            <g id="Stacked-Group">
                                <g id="block.Product-Copy-3">
                                    <g id="01" transform="translate(37.000000, 48.000000)">
                                        <g id="Bg">
                                            <g>
                                                <path d="M15.7551078,135.028407 C18.9313137,139.426261 22.5200784,143.502038 26.4683824,147.202611 L141.110029,147.202611 C145.058333,143.502038 148.645441,139.426261 151.823304,135.028407 L15.7551078,135.028407 Z" id="Fill-1" fill="#DEF4F9"></path>
                                                <path d="M15.7552735,36.5236078 L151.82347,36.5236078 C148.645607,32.1257534 145.058499,28.0499767 141.110195,24.3494039 L26.468548,24.3494039 C22.5202441,28.0499767 18.9314794,32.1257534 15.7552735,36.5236078" id="Fill-3" fill="#DEF4F9"></path>
                                                <path d="M4.32557157,112.89254 C5.75875784,117.111093 7.5084049,121.180229 9.56291471,125.066744 L158.01616,125.066744 C160.069013,121.180229 161.81866,117.111093 163.251846,112.89254 L4.32557157,112.89254 Z" id="Fill-5" fill="#DEF4F9"></path>
                                                <g id="Group-9" transform="translate(38.107843, 0.552845)">
                                                    <mask id="mask-2" fill="white">
                                                        <use xlink:href="#path-1"></use>
                                                    </mask>
                                                    <g id="Clip-8"></g>
                                                    <path d="M90.0678873,13.8348961 C77.1890931,5.77797379 61.9824069,1.10618738 45.6805343,1.10618738 C29.3803186,1.10618738 14.1736324,5.77797379 1.29483824,13.8348961 L90.0678873,13.8348961 Z" id="Fill-7" fill="#DEF4F9" mask="url(#mask-2)"></path>
                                                </g>
                                                <path d="M9.56258333,46.4847728 C7.50973039,50.3712874 5.75842647,54.4404233 4.3252402,58.6589767 L163.253172,58.6589767 C161.818328,54.4404233 160.068681,50.3712874 158.015828,46.4847728 L9.56258333,46.4847728 Z" id="Fill-10" fill="#DEF4F9"></path>
                                                <path d="M0,90.7566728 C0.241901961,94.9021777 0.773754902,98.9679932 1.59390196,102.930877 L165.98451,102.930877 C166.804657,98.9679932 167.33651,94.9021777 167.578412,90.7566728 L0,90.7566728 Z" id="Fill-12" fill="#DEF4F9"></path>
                                                <g id="Group-16" transform="translate(38.107843, 156.611097)">
                                                    <mask id="mask-4" fill="white">
                                                        <use xlink:href="#path-3"></use>
                                                    </mask>
                                                    <g id="Clip-15"></g>
                                                    <path d="M1.29450686,0.553342718 C14.173301,8.61026505 29.3799873,13.2820515 45.6818598,13.2820515 C61.9837324,13.2820515 77.1887618,8.61026505 90.0675559,0.553342718 L1.29450686,0.553342718 Z" id="Fill-14" fill="#DEF4F9" mask="url(#mask-4)"></path>
                                                </g>
                                                <g id="Group-19" transform="translate(0.000000, 68.620806)">
                                                    <mask id="mask-6" fill="white">
                                                        <use xlink:href="#path-5"></use>
                                                    </mask>
                                                    <g id="Clip-18"></g>
                                                    <path d="M1.59357059,-0.000166019417 C0.773423529,3.96271748 0.241570588,8.02853301 -0.000331372549,12.1740379 L167.57808,12.1740379 C167.336178,8.02853301 166.804325,3.96271748 165.984178,-0.000166019417 L1.59357059,-0.000166019417 Z" id="Fill-17" fill="#DEF4F9" mask="url(#mask-6)"></path>
                                                </g>
                                            </g>
                                        </g>
                                        <g id="ico.Nature" transform="translate(39.000000, 22.000000)">
                                            <g id="Fills" transform="translate(0.000000, 1.000000)">
                                                <path d="M12,0.897684607 C13.7788611,19.3089784 24.4220289,27.6538424 43.9295032,25.9322767 C41.8279499,5.42753744 31.1847821,-2.91732659 12,0.897684607 Z" id="Path-3" fill="#FFFFFF"></path>
                                                <path d="M45,0.897684607 C46.7788611,19.3089784 57.4220289,27.6538424 76.9295032,25.9322767 C74.8279499,5.42753744 64.1847821,-2.91732659 45,0.897684607 Z" id="Path-3-Copy" fill="#FFFFFF" transform="translate(60.964752, 13.076547) scale(1, -1) translate(-60.964752, -13.076547) "></path>
                                                <polygon id="Path-4" fill="#FFFFFF" points="8.71098658 80.0928288 83.0178166 80.0928288 65.3882219 137.910287 26.3697338 137.910287"></polygon>
                                                <rect id="Rectangle-3" fill="#F4EB37" x="0" y="58" width="91" height="22"></rect>
                                            </g>
                                            <polygon id="Stroke-1" stroke="#000000" stroke-width="2.69999993" points="0.103708398 59.4724185 90.9261054 59.4724185 90.9261054 81.0840593 0.103708398 81.0840593"></polygon>
                                            <polyline id="Stroke-2" stroke="#000000" stroke-width="2.69999993" stroke-linecap="round" points="9.02894306 82.1738876 25.8517925 138.909068 65.7599128 138.909068 82.5635009 82.8051004"></polyline>
                                            <path d="M44.1485149,58.8855878 L44.1485149,26.3864895" id="Stroke-3" stroke="#000000" stroke-width="2.69999993" stroke-linecap="round"></path>
                                            <path d="M44.6126342,28.2472754 C44.6126342,28.2472754 44.9422509,-4.93577735 76.9717709,1.08047146" id="Stroke-4" stroke="#000000" stroke-width="2.69999993" stroke-linecap="round"></path>
                                            <path d="M45.0792724,26.6289088 C45.0792724,26.6289088 74.6621242,33.7923774 77.1298809,1.33900908" id="Stroke-5" stroke="#000000" stroke-width="2.69999993" stroke-linecap="round"></path>
                                            <path d="M44.7317338,28.2472754 C44.7317338,28.2472754 44.4021171,-4.93577735 12.3725971,1.08047146" id="Stroke-6" stroke="#000000" stroke-width="2.69999993" stroke-linecap="round"></path>
                                            <path d="M44.2667161,26.6277717 C44.2667161,26.6277717 14.6838643,33.7912402 12.2161077,1.33787191" id="Stroke-7" stroke="#000000" stroke-width="2.69999993" stroke-linecap="round"></path>
                                            <path d="M39.3863884,98.2452394 C39.3863884,102.698009 32.6972431,102.698009 32.6972431,98.2452394 C32.6972431,93.7924866 39.3863884,93.7924866 39.3863884,98.2452394" id="Fill-8" fill="#000000"></path>
                                            <path d="M39.386383,98.2452456 C39.386383,102.698008 32.6972476,102.698008 32.6972476,98.2452456 C32.6972476,93.7924833 39.386383,93.7924833 39.386383,98.2452456" id="Stroke-9"></path>
                                            <path d="M60.5711884,98.2452394 C60.5711884,102.698009 53.8820596,102.698009 53.8820596,98.2452394 C53.8820596,93.7924866 60.5711884,93.7924866 60.5711884,98.2452394" id="Fill-10" fill="#000000"></path>
                                            <path d="M60.5711966,98.2452456 C60.5711966,102.698008 53.8820613,102.698008 53.8820613,98.2452456 C53.8820613,93.7924833 60.5711966,93.7924833 60.5711966,98.2452456" id="Stroke-11"></path>
                                            <path d="M31.585755,110.596551 C31.585755,110.596551 46.1853947,125.451749 61.6829246,110.486846" id="Stroke-12" stroke="#000000" stroke-width="1.79999995"></path>
                                        </g>
                                    </g>
                                </g>
                            </g>
                        </g>
                    </g>
                </g>
            </g>
        </g>
    </g>
</svg>