<?xml version="1.0" encoding="UTF-8"?>
<svg width="168px" height="169px" viewBox="0 0 168 169" version="1.1" xmlns="http://www.w3.org/2000/svg" xmlns:xlink="http://www.w3.org/1999/xlink">
    <!-- Generator: Sketch 47.1 (45422) - http://www.bohemiancoding.com/sketch -->
    <title>02</title>
    <desc>Created with Sketch.</desc>
    <defs>
        <polygon id="path-1" points="90.0678873 1.10734951 1.29483824 1.10734951 1.29483824 13.8348961 90.0678873 13.8348961 90.0678873 1.10734951"></polygon>
        <polygon id="path-3" points="1.29450686 13.2815534 90.0675559 13.2815534 90.0675559 0.553342718 1.29450686 0.553342718 1.29450686 13.2815534"></polygon>
        <polygon id="path-5" points="0 -0.000166019417 0 12.1740379 167.57808 12.1740379 167.57808 -0.000166019417 6.7364032e-20 -0.000166019417"></polygon>
    </defs>
    <g id="Symbols" stroke="none" stroke-width="1" fill="none" fill-rule="evenodd">
        <g id="Content.Landing" transform="translate(-403.000000, -819.000000)">
            <g id="Content">
                <g id="Stack">
                    <g id="block.Text" transform="translate(105.000000, 660.000000)">
                        <g id="block.Features" transform="translate(0.000000, 110.000000)">
                            <g id="Stacked-Group">
                                <g id="block.Product-Copy-2" transform="translate(273.000000, 0.000000)">
                                    <g id="02" transform="translate(25.000000, 48.000000)">
                                        <g id="Bg">
                                            <g>
                                                <path d="M15.7551078,135.028407 C18.9313137,139.426261 22.5200784,143.502038 26.4683824,147.202611 L141.110029,147.202611 C145.058333,143.502038 148.645441,139.426261 151.823304,135.028407 L15.7551078,135.028407 Z" id="Fill-1" fill="#DEF4F9"></path>
                                                <path d="M15.7552735,36.5236078 L151.82347,36.5236078 C148.645607,32.1257534 145.058499,28.0499767 141.110195,24.3494039 L26.468548,24.3494039 C22.5202441,28.0499767 18.9314794,32.1257534 15.7552735,36.5236078" id="Fill-3" fill="#DEF4F9"></path>
                                                <path d="M4.32557157,112.89254 C5.75875784,117.111093 7.5084049,121.180229 9.56291471,125.066744 L158.01616,125.066744 C160.069013,121.180229 161.81866,117.111093 163.251846,112.89254 L4.32557157,112.89254 Z" id="Fill-5" fill="#DEF4F9"></path>
                                                <g id="Group-9" transform="translate(38.107843, 0.552845)">
                                                    <mask id="mask-2" fill="white">
                                                        <use xlink:href="#path-1"></use>
                                                    </mask>
                                                    <g id="Clip-8"></g>
                                                    <path d="M90.0678873,13.8348961 C77.1890931,5.77797379 61.9824069,1.10618738 45.6805343,1.10618738 C29.3803186,1.10618738 14.1736324,5.77797379 1.29483824,13.8348961 L90.0678873,13.8348961 Z" id="Fill-7" fill="#DEF4F9" mask="url(#mask-2)"></path>
                                                </g>
                                                <path d="M9.56258333,46.4847728 C7.50973039,50.3712874 5.75842647,54.4404233 4.3252402,58.6589767 L163.253172,58.6589767 C161.818328,54.4404233 160.068681,50.3712874 158.015828,46.4847728 L9.56258333,46.4847728 Z" id="Fill-10" fill="#DEF4F9"></path>
                                                <path d="M0,90.7566728 C0.241901961,94.9021777 0.773754902,98.9679932 1.59390196,102.930877 L165.98451,102.930877 C166.804657,98.9679932 167.33651,94.9021777 167.578412,90.7566728 L0,90.7566728 Z" id="Fill-12" fill="#DEF4F9"></path>
                                                <g id="Group-16" transform="translate(38.107843, 156.611097)">
                                                    <mask id="mask-4" fill="white">
                                                        <use xlink:href="#path-3"></use>
                                                    </mask>
                                                    <g id="Clip-15"></g>
                                                    <path d="M1.29450686,0.553342718 C14.173301,8.61026505 29.3799873,13.2820515 45.6818598,13.2820515 C61.9837324,13.2820515 77.1887618,8.61026505 90.0675559,0.553342718 L1.29450686,0.553342718 Z" id="Fill-14" fill="#DEF4F9" mask="url(#mask-4)"></path>
                                                </g>
                                                <g id="Group-19" transform="translate(0.000000, 68.620806)">
                                                    <mask id="mask-6" fill="white">
                                                        <use xlink:href="#path-5"></use>
                                                    </mask>
                                                    <g id="Clip-18"></g>
                                                    <path d="M1.59357059,-0.000166019417 C0.773423529,3.96271748 0.241570588,8.02853301 -0.000331372549,12.1740379 L167.57808,12.1740379 C167.336178,8.02853301 166.804325,3.96271748 165.984178,-0.000166019417 L1.59357059,-0.000166019417 Z" id="Fill-17" fill="#DEF4F9" mask="url(#mask-6)"></path>
                                                </g>
                                            </g>
                                        </g>
                                        <g id="ico.Healthy" transform="translate(41.000000, 18.000000)">
                                            <g id="Fills" transform="translate(1.000000, 1.000000)">
                                                <path d="M41.9401607,37.2014234 C39.2019824,35.6877317 36.159768,36.6072554 32.8135176,39.9599944 C27.7941419,44.9891029 -1.89178044,88.1988361 0.567852668,105.958527 C3.02748577,123.718218 10.9361308,129.785267 12.1249303,130.861443 C13.3137298,131.93762 25.1495844,143.352876 44.6104407,140.001295 C63.8307563,137.596584 72.1460959,135.81547 79.9316898,124.571929 C87.7172837,113.328389 82.9843322,89.4835738 80.6505311,87.633635 C78.31673,85.7836961 69.3798777,69.3866055 69.0162858,67.0611469 C68.6526939,64.7356882 65.5639008,45.0996404 61.5052976,42.9785718 C57.3813452,39.6258328 50.8596329,37.7001167 41.9401607,37.2014234 Z" id="Path-5" fill="#FFFFFF"></path>
                                                <path d="M14.8409329,4.4754931 C21.2049145,0.951530294 26.9695001,-0.143615652 32.1346898,1.19005527 C39.8824744,3.19056165 44.9493894,7.40881317 46.1113781,18.7350692 C46.8860371,26.2859065 47.1516175,29.086138 46.9081191,27.1357636 C43.4139968,27.0816529 37.5025959,25.9023567 29.1739165,23.5978752 C20.8452371,21.2933938 16.0675759,14.9192664 14.8409329,4.4754931 Z" id="Path-6" fill="#F4EB37"></path>
                                            </g>
                                            <path d="M18.0447905,9.07101848 L18.0387009,9.07101848 L18.0447905,9.07101848 Z" id="Fill-1" fill="#000000"></path>
                                            <path d="M86.3427497,101.341924 C86.0993958,98.8039848 85.5822707,96.3084793 84.8157019,93.928462 C83.3312508,89.137962 80.8916686,84.9606522 78.5979898,81.0626587 C77.4481445,79.1076 76.2921627,77.2131609 75.2214055,75.337063 C74.6738631,74.4020296 74.1567379,73.4549033 73.6335698,72.5258696 C73.0981912,71.5786811 72.6723179,70.7529804 72.2829517,69.8300087 C70.7985005,66.1566185 70.183956,62.2040674 69.4600462,58.4517163 C68.7421482,54.6872413 67.9999227,51.0138511 66.4849764,47.7048 C66.2781294,47.2979961 66.1077739,46.8851302 65.8826735,46.4904658 L65.5541418,45.9015078 L65.3898759,45.6100676 L65.3777121,45.5918507 L65.2742809,45.4339911 C65.2073722,45.3307668 65.1404479,45.2336201 65.0795977,45.1364734 C64.9518389,44.9482574 64.8362438,44.7721809 64.7328126,44.6143058 C64.2704479,44.0071464 64.0027508,43.6671173 64.0027508,43.6671173 C64.0027508,43.6671173 63.9175886,43.563893 63.7472331,43.4060335 C63.5829672,43.2420964 63.345703,43.011369 63.0597524,42.7381458 C62.7677277,42.4709845 62.3966149,42.1916992 62.0133228,41.8820421 C61.605703,41.6027413 61.1798298,41.3052391 60.7357186,41.0441553 C58.9471257,39.9816187 57.0063684,39.5444584 57.1644511,39.6112332 C55.5583931,39.2469251 54.2138335,39.295514 53.9218088,39.4958695 C53.7697223,39.6051557 53.873138,39.7630308 54.2990113,39.9998201 C54.5119479,40.1151838 54.8039726,40.2487645 55.1872492,40.4005465 C55.558362,40.5644836 56.0207422,40.7709165 56.5804484,41.0198609 C57.8580526,41.6573922 59.2511896,42.5984565 60.1760124,43.5032424 C60.4193663,43.7096753 60.6140494,43.9464802 60.7965687,44.1407737 C60.9790881,44.3411447 61.149428,44.5050662 61.2650231,44.6750808 C61.508377,44.9847379 61.6543894,45.1729539 61.6543894,45.1729539 C61.6543894,45.1729539 61.7213136,45.2336667 61.8247449,45.3672474 C61.9281917,45.500828 62.0802626,45.7011835 62.2810354,45.9562053 C62.4878824,46.1990722 62.6825655,46.5451633 62.9320091,46.9155333 L63.0050231,47.0248195 C63.0232766,47.0551759 62.9806799,46.9762461 63.1206182,47.2312524 C63.5282379,47.941636 63.9115145,48.6884535 64.2400462,49.4898752 C64.9092734,51.0866567 65.4203088,52.835298 65.852334,54.6750241 C66.7284082,58.3605383 67.2455333,62.4103915 68.340696,66.6543828 C68.8882385,68.7673633 69.6061364,70.9591491 70.7560129,73.0357578 C71.8267701,75.0090024 72.9400462,76.970123 74.1265231,78.955647 C75.2946219,80.9410154 76.5052395,82.9326013 77.6672642,84.9666209 C78.8353631,87.0006404 79.9486391,89.0770937 80.8734619,91.2508491 C81.8042965,93.4244491 82.5464909,95.6832274 83.0514211,98.038997 C83.5259651,100.400828 83.7571396,102.841621 83.8301536,105.325002 C83.8119001,107.820508 83.7753931,110.364509 83.4346976,112.872138 C83.0879125,115.373706 82.5282062,117.862994 81.6461047,120.249228 C79.9121788,125.027605 76.693833,129.271751 72.3682852,132.234649 C68.0609597,135.228015 62.8652562,137.01909 57.4993217,138.081642 C52.1151649,139.144179 46.5240209,139.514549 40.9029737,139.557061 C39.4976106,139.575276 38.0861423,139.550989 36.6747675,139.526703 L34.5575494,139.472058 L32.5073024,139.332409 C29.7817385,139.077403 27.0926192,138.500584 24.5313679,137.571644 C19.3904871,135.725856 14.8215075,132.416803 11.3598856,128.203122 C7.87381149,123.995502 5.48294683,118.931748 4.21750644,113.661421 C2.95206606,108.385187 2.80605371,102.884194 3.75512621,97.656301 C4.22358056,95.039401 4.9779855,92.4893379 6.01220462,90.0788553 C6.52932975,88.8645211 7.09512567,87.7352097 7.72183405,86.4723021 C8.31197315,85.2518903 8.89602256,84.0315097 9.47398228,82.8170977 C14.0672583,73.1387955 18.6849866,63.861826 23.8501638,55.5553912 C26.4419415,51.4205151 29.1614313,47.4982738 32.2336869,44.2074086 C33.7728985,42.5862238 35.4155881,41.0987129 37.1798845,40.1272455 C37.6179216,39.8904562 38.0620483,39.6718683 38.5061595,39.5261482 L38.6704253,39.4654353 C38.7312599,39.4411409 38.7920945,39.416862 38.8590188,39.4047225 C39.8445983,39.1193598 40.6354635,39.1436387 41.17092,39.2590024 C41.7123883,39.3682886 42.0104871,39.5261637 42.0409044,39.5383032 C42.0895752,39.5443651 42.2112599,39.5140087 42.2416772,39.5018692 C43.0143201,39.2529249 43.5010279,38.9068493 43.6348765,38.4636115 C43.7808888,38.0385907 43.5983695,37.5042836 43.3428518,37.16427 C43.2698378,37.0610458 43.2455102,37.0489063 43.1724962,37.0124724 C43.1238255,36.9942554 42.6310279,36.7392491 41.7367159,36.5510176 C40.8423883,36.3506466 39.5160822,36.3385072 38.141152,36.7392336 C38.0499001,36.763528 37.9647223,36.7817295 37.8856343,36.8181634 L37.7700392,36.8363803 L37.6240269,36.8910312 C37.3198383,36.9881779 37.0278136,37.1156811 36.7418631,37.2431842 C34.4542583,38.2996589 32.6231466,39.890394 30.9317395,41.5723538 C27.5856815,44.9846136 24.8052948,48.9373201 22.1467019,53.0781027 C16.8720349,61.3963505 12.2360843,70.6064832 7.67925295,80.1766027 C7.10736735,81.37272 6.54157143,82.5688995 5.96354941,83.7710321 L5.09356498,85.5560451 L4.65552793,86.4364433 L4.20532707,87.3775542 C3.00681096,89.8912455 2.06988668,92.5505792 1.42494039,95.2888738 C0.165589689,100.777587 0.0499946294,106.582143 1.10249839,112.211059 C2.15500215,117.833446 4.37566702,123.322159 7.78869603,128.046754 C11.1774286,132.770573 15.8010752,136.704933 21.1548614,139.133602 C23.8256026,140.354013 26.660812,141.210055 29.5383845,141.701851 L31.7102696,142.00543 L33.8882288,142.157222 C35.3300988,142.230082 36.7172084,142.254368 38.1408872,142.272584 C43.7866982,142.327229 49.4446574,142.126864 55.0238088,141.276838 C60.5844264,140.426796 66.1146735,138.95744 71.0843888,136.243393 C73.5604468,134.889416 75.8662739,133.219717 77.8618539,131.228131 C79.8512041,129.242763 81.5122406,126.947613 82.7837551,124.500758 C85.3328582,119.576584 86.312348,114.166832 86.5252535,109.018055 C86.6043416,107.724791 86.5739243,106.443744 86.5982675,105.162495 C86.5191794,103.89351 86.5130897,102.612432 86.3427497,101.343463 L86.3427497,101.341924 Z" id="Fill-2" fill="#000000"></path>
                                            <path d="M14.6557465,6.29635217 L15.4466429,10.091137 C15.5622379,10.825815 15.8299194,11.5361986 16.0611096,12.2465511 C16.4626396,13.6976747 17.1744479,15.0516826 17.8497025,16.411737 C19.3767503,19.0710707 21.6035048,21.3359109 24.1465338,22.9752815 C26.6895628,24.632838 29.4699495,25.7438859 32.2380322,26.6426098 C35.0184189,27.5230079 37.804724,28.1969576 40.5668883,28.8951707 C41.9479237,29.2351842 43.3167487,29.5934148 44.6795306,29.9577073 C45.0202261,30.0487765 45.3609216,30.1337838 45.6955274,30.237008 L47.1799785,30.6620289 C47.5328378,30.7166798 47.9587111,30.8684618 48.3724049,31.00812 C48.3845687,31.0324145 48.3967325,31.0506159 48.4028222,31.0688328 L49.1754651,33.1028524 C49.3640585,33.6553764 49.5039968,34.2321793 49.6500091,34.7967807 C49.2667325,35.7196747 48.8530231,36.6304448 48.3845687,37.5047654 C48.0256198,38.1362192 47.6970881,38.78589 47.2712304,39.3748013 L46.6750172,40.2794784 C46.4681702,40.5709186 46.2369801,40.8441418 46.0118797,41.1295201 C45.9814624,41.184171 45.9692986,41.3238136 45.9753727,41.3602475 C45.9753727,41.3906039 45.9814624,41.4088209 45.9875521,41.4391773 C44.7464393,41.5788354 43.8824823,41.7609739 43.8824823,41.7609739 C43.0246617,41.9917013 42.178927,42.2467076 41.3394533,42.5320703 C41.0839356,42.6110001 40.8284178,42.7142243 40.5789742,42.7992316 C39.0945231,43.3517557 37.6405048,43.9832095 36.2229001,44.7239805 C36.1742293,44.766492 36.0890516,44.8939796 36.0768878,44.9304135 C35.3285725,46.6851167 36.6487734,47.1100754 37.3301643,47.1890363 C37.43358,47.2072533 37.4579232,47.1951138 37.5126837,47.1647574 C38.8085414,46.4847302 40.1591284,45.8957723 41.5401327,45.3858063 C41.7773969,45.300799 42.008587,45.2036523 42.2458512,45.1308 C42.9150784,44.9000726 43.5843056,44.6936397 44.2535795,44.5054237 C44.2535795,44.5054237 46.0118018,43.8861093 47.7821724,43.5278788 C49.5586171,43.1271524 51.292543,43.1696483 51.1403786,43.1210749 C51.4810741,43.1210749 51.8217696,43.1149974 52.1685548,43.1149974 C52.4849071,43.1392918 52.7769318,43.1575088 53.0446289,43.1575088 C53.5495902,43.2060822 53.9389565,43.2303611 54.1153861,43.1514313 C54.2918158,43.084641 54.2492191,42.902487 53.847689,42.6049848 C53.6469162,42.4471252 53.3609812,42.2528317 52.9472873,42.1010341 C52.5396676,41.9067407 52.0164527,41.7610205 51.3655258,41.6092229 C50.7206418,41.4574253 50.0027438,41.3784955 49.2849082,41.3359997 L49.5890967,40.8745449 C50.057551,40.2187966 50.4165,39.508413 50.811956,38.8102155 C53.4401783,33.8496699 54.8394049,28.3365536 54.9854952,22.7444764 L54.9428985,20.4553884 C54.9428985,20.4553884 54.8638104,19.9514377 54.754305,19.2046202 C54.6691429,18.4578027 54.4379527,17.4741648 54.1945988,16.5148213 C53.9634087,15.5554934 53.5862062,14.6326615 53.3732852,13.9647583 C53.0812605,13.3150875 52.8804876,12.9143611 52.8987411,12.9993684 C52.7162218,12.6350603 52.5458818,12.2950623 52.3633625,11.9854051 C52.1565156,11.6878874 51.9618324,11.4207416 51.7914769,11.1960917 C51.4386176,10.746792 51.152667,10.4553517 50.9762374,10.4067784 C50.793718,10.358205 50.7389731,10.540359 50.8119715,11.0200152 C50.8545682,11.2628821 50.9275666,11.5725392 51.0431617,11.9672037 C51.1770102,12.3557907 51.2926053,12.8476018 51.4325279,13.4426217 C51.511616,13.8008523 51.5967938,14.1651448 51.6758818,14.5355148 C51.7306423,14.9180242 51.7914769,15.3066112 51.8462374,15.6891362 C51.9922497,16.4480932 52.0165929,17.2252671 52.0835016,17.8992634 C52.1625897,18.5671511 52.1321724,19.1682485 52.1504259,19.5871297 C52.1565156,20.006073 52.1625897,20.2550174 52.1625897,20.2550174 C52.229514,21.0625477 52.2051864,21.8762022 52.229514,22.6897478 C52.1625897,25.2945239 51.7914769,27.9114239 51.1222497,30.449363 L50.9458201,29.9818463 C50.5868711,29.1500215 50.1914151,28.3485376 49.7655575,27.5531778 L49.747304,27.1949473 L49.7108126,26.6485008 C49.6621418,25.9199002 49.5891278,25.1912997 49.5100397,24.4688388 C49.3396842,23.0177152 49.1145838,21.5726225 48.8225591,20.1336073 C48.2141821,17.2616388 47.3441821,14.4201355 46.0239501,11.7304921 C44.7037492,9.05281707 42.9029458,6.51487793 40.4997771,4.55375728 C38.1026826,2.59869859 35.1277685,1.32366707 32.0858835,0.916894239 C31.3314785,0.77725163 30.5649253,0.752957174 29.8045086,0.710461304 C29.6159151,0.704383804 29.421232,0.680104891 29.232623,0.692244348 L28.8858378,0.698321848 L28.7094082,0.704383804 L28.0036896,0.722600761 C27.5291455,0.722600761 27.072855,0.77117413 26.6104903,0.825825 C26.6104903,0.825825 26.105529,0.910832283 25.3572137,1.03225793 C24.627152,1.22655141 23.6415102,1.40870543 22.7107691,1.71228511 C20.8187605,2.25873163 19.0848346,3.03590554 19.2429173,2.99340967 C17.7949576,3.65521989 16.6938142,4.36560348 16.547724,4.69355533 C16.4017116,5.04570837 17.2230252,5.02142946 19.6383577,4.46890543 C20.3684194,4.35961924 21.147152,4.18354272 21.9320365,4.06817902 C22.7229329,3.97103228 23.4834119,3.81923467 24.1708926,3.76459935 C24.8522836,3.70388652 25.4424227,3.64923565 25.8621439,3.61280174 C26.2819275,3.60066228 26.5313711,3.59458478 26.5313711,3.59458478 C26.9572444,3.55816641 27.3770279,3.49137609 27.8029012,3.47315913 L28.4356214,3.45494217 L28.7519737,3.44886467 L28.9101498,3.44280272 L29.2812626,3.43064772 C29.4516182,3.43064772 29.6158684,3.44886467 29.786224,3.45494217 C31.1368421,3.49137609 32.463195,3.72210348 33.7407836,4.06210152 C35.0001343,4.46282793 36.2352197,4.95463913 37.3424216,5.67116239 C38.4496858,6.38762348 39.477862,7.23157217 40.3782325,8.22122543 C41.2725602,9.21698728 42.0634098,10.309958 42.756949,11.4817809 C43.4322503,12.6657587 44.0162997,13.9104493 44.5212454,15.1976048 C45.0079533,16.4969463 45.4216472,17.8205667 45.7623582,19.1745591 C46.0239656,20.2431733 46.2308126,21.3239113 46.4133319,22.4167733 C44.5759903,20.0731276 42.4526982,17.9601472 40.1409527,16.1204211 C39.0276144,15.1550312 37.7804586,14.3717798 36.5941375,13.509583 C35.3347868,12.7627655 34.1180795,11.9309874 32.7978163,11.287332 C30.2304909,9.87262674 27.4927787,8.79182652 24.7184662,7.86901022 L22.6133963,7.23755641 C21.9076778,7.04326293 21.1897798,6.89754283 20.4718818,6.7214663 L19.4011246,6.47252196 L18.1417739,6.26608902 L16.0245559,5.91999793 L14.9659624,5.74998337 L14.704355,5.7074875 L14.5705064,5.68319304 C14.552253,5.68319304 14.5218357,5.67105359 14.5096719,5.67711554 L14.5218357,5.74390587 L14.6557465,6.29635217 Z M18.2452363,9.1014837 C18.5920215,9.15613457 18.9387911,9.20470793 19.2794866,9.29577717 L21.3297336,9.77543337 C22.0172143,9.93329293 22.6803518,10.1700978 23.3556842,10.3583138 C24.0309855,10.5526073 24.7002127,10.7651177 25.3573383,11.0262015 L27.3345403,11.7669415 C28.6121445,12.349822 29.9202438,12.8719896 31.1490838,13.5580165 C32.4145242,14.1773309 33.6008453,14.9302103 34.7994705,15.658873 C35.3956837,16.029243 35.9493158,16.4603259 36.5273222,16.8549903 L37.3912325,17.4621497 C37.6710934,17.6746601 37.9327009,17.89931 38.2064721,18.1178979 C41.5769823,20.7772316 44.4972293,24.0074773 46.6569662,27.6625262 C45.2759307,27.2678617 43.8949576,26.9157087 42.5200274,26.5574782 C39.6971219,25.8410171 36.8924388,25.1731293 34.172949,24.3594749 C31.4595333,23.5398051 28.8070145,22.5865858 26.4525945,21.2083455 C24.1042487,19.8300742 22.1086686,17.9843173 20.6912197,15.7196325 C20.51479,15.4342698 20.3018534,15.1792479 20.1497513,14.8756683 L19.717804,13.9649137 C19.431869,13.3577543 19.0972476,12.7687964 18.9208179,12.1070017 L18.2759339,10.1701289 L18.0629973,9.15616565 C18.0508335,9.10759228 18.0508335,9.08937533 18.0447438,9.07723587 L18.2452363,9.1014837 Z M18.0444635,9.07112728 L18.0383738,9.07112728 L18.0444635,9.07112728 Z" id="Fill-3" fill="#000000"></path>
                                        </g>
                                    </g>
                                </g>
                            </g>
                        </g>
                    </g>
                </g>
            </g>
        </g>
    </g>
</svg>