<?xml version="1.0" encoding="UTF-8"?>
<svg width="168px" height="169px" viewBox="0 0 168 169" version="1.1" xmlns="http://www.w3.org/2000/svg" xmlns:xlink="http://www.w3.org/1999/xlink">
    <!-- Generator: Sketch 47.1 (45422) - http://www.bohemiancoding.com/sketch -->
    <title>03</title>
    <desc>Created with Sketch.</desc>
    <defs>
        <polygon id="path-1" points="90.0678873 1.10734951 1.29483824 1.10734951 1.29483824 13.8348961 90.0678873 13.8348961 90.0678873 1.10734951"></polygon>
        <polygon id="path-3" points="1.29450686 13.2815534 90.0675559 13.2815534 90.0675559 0.553342718 1.29450686 0.553342718 1.29450686 13.2815534"></polygon>
        <polygon id="path-5" points="0 -0.000166019417 0 12.1740379 167.57808 12.1740379 167.57808 -0.000166019417 6.7364032e-20 -0.000166019417"></polygon>
    </defs>
    <g id="Symbols" stroke="none" stroke-width="1" fill="none" fill-rule="evenodd">
        <g id="Content.Landing" transform="translate(-652.000000, -819.000000)">
            <g id="Content">
                <g id="Stack">
                    <g id="block.Text" transform="translate(105.000000, 660.000000)">
                        <g id="block.Features" transform="translate(0.000000, 110.000000)">
                            <g id="Stacked-Group">
                                <g id="block.Product-Copy" transform="translate(522.000000, 0.000000)">
                                    <g id="03" transform="translate(25.000000, 48.000000)">
                                        <g id="Bg">
                                            <g>
                                                <path d="M15.7551078,135.028407 C18.9313137,139.426261 22.5200784,143.502038 26.4683824,147.202611 L141.110029,147.202611 C145.058333,143.502038 148.645441,139.426261 151.823304,135.028407 L15.7551078,135.028407 Z" id="Fill-1" fill="#DEF4F9"></path>
                                                <path d="M15.7552735,36.5236078 L151.82347,36.5236078 C148.645607,32.1257534 145.058499,28.0499767 141.110195,24.3494039 L26.468548,24.3494039 C22.5202441,28.0499767 18.9314794,32.1257534 15.7552735,36.5236078" id="Fill-3" fill="#DEF4F9"></path>
                                                <path d="M4.32557157,112.89254 C5.75875784,117.111093 7.5084049,121.180229 9.56291471,125.066744 L158.01616,125.066744 C160.069013,121.180229 161.81866,117.111093 163.251846,112.89254 L4.32557157,112.89254 Z" id="Fill-5" fill="#DEF4F9"></path>
                                                <g id="Group-9" transform="translate(38.107843, 0.552845)">
                                                    <mask id="mask-2" fill="white">
                                                        <use xlink:href="#path-1"></use>
                                                    </mask>
                                                    <g id="Clip-8"></g>
                                                    <path d="M90.0678873,13.8348961 C77.1890931,5.77797379 61.9824069,1.10618738 45.6805343,1.10618738 C29.3803186,1.10618738 14.1736324,5.77797379 1.29483824,13.8348961 L90.0678873,13.8348961 Z" id="Fill-7" fill="#DEF4F9" mask="url(#mask-2)"></path>
                                                </g>
                                                <path d="M9.56258333,46.4847728 C7.50973039,50.3712874 5.75842647,54.4404233 4.3252402,58.6589767 L163.253172,58.6589767 C161.818328,54.4404233 160.068681,50.3712874 158.015828,46.4847728 L9.56258333,46.4847728 Z" id="Fill-10" fill="#DEF4F9"></path>
                                                <path d="M0,90.7566728 C0.241901961,94.9021777 0.773754902,98.9679932 1.59390196,102.930877 L165.98451,102.930877 C166.804657,98.9679932 167.33651,94.9021777 167.578412,90.7566728 L0,90.7566728 Z" id="Fill-12" fill="#DEF4F9"></path>
                                                <g id="Group-16" transform="translate(38.107843, 156.611097)">
                                                    <mask id="mask-4" fill="white">
                                                        <use xlink:href="#path-3"></use>
                                                    </mask>
                                                    <g id="Clip-15"></g>
                                                    <path d="M1.29450686,0.553342718 C14.173301,8.61026505 29.3799873,13.2820515 45.6818598,13.2820515 C61.9837324,13.2820515 77.1887618,8.61026505 90.0675559,0.553342718 L1.29450686,0.553342718 Z" id="Fill-14" fill="#DEF4F9" mask="url(#mask-4)"></path>
                                                </g>
                                                <g id="Group-19" transform="translate(0.000000, 68.620806)">
                                                    <mask id="mask-6" fill="white">
                                                        <use xlink:href="#path-5"></use>
                                                    </mask>
                                                    <g id="Clip-18"></g>
                                                    <path d="M1.59357059,-0.000166019417 C0.773423529,3.96271748 0.241570588,8.02853301 -0.000331372549,12.1740379 L167.57808,12.1740379 C167.336178,8.02853301 166.804325,3.96271748 165.984178,-0.000166019417 L1.59357059,-0.000166019417 Z" id="Fill-17" fill="#DEF4F9" mask="url(#mask-6)"></path>
                                                </g>
                                            </g>
                                        </g>
                                        <g id="ico.Ukraine" transform="translate(26.000000, 56.000000)">
                                            <g id="Fills">
                                                <path d="M4.45983538,53 L113.227139,53 C113.026391,53.4751829 112.818879,53.9515536 112.604605,54.4290302 C101.908074,78.2605525 68.4438356,99.9895992 60.4146048,103.690372 C59.9804118,103.893408 59.4236225,104 58.8464202,104 L58.8467471,103.998818 C58.2695187,103.998818 57.7178425,103.887158 57.2785625,103.69427 C49.2485471,99.9888195 15.7750241,78.2592531 5.08333045,54.4329285 C4.86870308,53.9541416 4.66087134,53.4764714 4.45983538,53 Z" id="Combined-Shape" fill="#FFF978"></path>
                                                <path d="M113.237901,52.9745111 L4.44908693,52.9745111 C-1.66909809,38.4577221 -1.47792563,25.0553884 5.02714022,15.0953236 C10.7890941,6.26830444 20.8776787,0.999121072 32.0087556,0.999121072 C43.0628094,0.999121072 52.9579864,6.39473885 58.8465248,15.5371293 C64.7362402,6.39538856 74.6251402,0.999121072 85.6842941,0.999121072 C96.8149787,0.999121072 106.898986,6.26791461 112.665909,15.0953236 C119.176381,25.0573005 119.362454,38.4611121 113.237901,52.9745111 Z" id="Combined-Shape" fill="#A7E3F1"></path>
                                            </g>
                                            <path d="M58.8467471,103.998818 C58.2695187,103.998818 57.7178425,103.887158 57.2785625,103.69427 C49.2485471,99.9888195 15.7750241,78.2592531 5.08333045,54.4329285 C-1.67482471,39.3569568 -1.6952234,25.3880983 5.02714022,15.0953236 C10.7890941,6.26830444 20.8776787,0.999121072 32.0087556,0.999121072 C43.0628094,0.999121072 52.9579864,6.39473885 58.8465248,15.5371293 C64.7362402,6.39538856 74.6251402,0.999121072 85.6842941,0.999121072 C96.8149787,0.999121072 106.898986,6.26791461 112.665909,15.0953236 C119.393333,25.3892678 119.367833,39.3582562 112.604605,54.4290302 C101.908074,78.2605525 68.4438356,99.9895992 60.4146048,103.690372 C59.9804118,103.893408 59.4236225,104 58.8464202,104 L58.8467471,103.998818 Z M32.0089779,3.29829123 C21.8181318,3.29829123 12.2196702,8.29810302 6.96405483,16.3484536 C0.680984294,25.9672147 0.767815063,39.1599244 7.19903406,53.4991201 C17.476711,76.3963531 50.6954956,98.1266992 58.2552648,101.607869 C58.4442656,101.694164 59.2513602,101.694164 59.440361,101.607869 C67.0003918,98.1207219 100.219438,76.4015509 110.496592,53.4991201 C116.927823,39.1651221 117.009553,25.9668248 110.731571,16.3484536 C105.470202,8.29810302 95.8774941,3.29829123 85.6866479,3.29829123 C74.8164556,3.29829123 65.1624171,8.9172808 59.8544941,18.3326812 L58.8481856,20.1193957 L57.8418771,18.3326812 C52.5344771,8.91689097 42.8805694,3.29829123 32.0097233,3.29829123 L32.0089779,3.29829123 Z" id="Fill-2" fill="#000000"></path>
                                        </g>
                                    </g>
                                </g>
                            </g>
                        </g>
                    </g>
                </g>
            </g>
        </g>
    </g>
</svg>