<?xml version="1.0" encoding="UTF-8"?>
<svg width="168px" height="169px" viewBox="0 0 168 169" version="1.1" xmlns="http://www.w3.org/2000/svg" xmlns:xlink="http://www.w3.org/1999/xlink">
    <!-- Generator: Sketch 47.1 (45422) - http://www.bohemiancoding.com/sketch -->
    <title>04</title>
    <desc>Created with Sketch.</desc>
    <defs>
        <polygon id="path-1" points="90.0678873 1.10734951 1.29483824 1.10734951 1.29483824 13.8348961 90.0678873 13.8348961 90.0678873 1.10734951"></polygon>
        <polygon id="path-3" points="1.29450686 13.2815534 90.0675559 13.2815534 90.0675559 0.553342718 1.29450686 0.553342718 1.29450686 13.2815534"></polygon>
        <polygon id="path-5" points="0 -0.000166019417 0 12.1740379 167.57808 12.1740379 167.57808 -0.000166019417 6.7364032e-20 -0.000166019417"></polygon>
    </defs>
    <g id="Symbols" stroke="none" stroke-width="1" fill="none" fill-rule="evenodd">
        <g id="Content.Landing" transform="translate(-901.000000, -819.000000)">
            <g id="Content">
                <g id="Stack">
                    <g id="block.Text" transform="translate(105.000000, 660.000000)">
                        <g id="block.Features" transform="translate(0.000000, 110.000000)">
                            <g id="Stacked-Group">
                                <g id="block.Product" transform="translate(771.000000, 0.000000)">
                                    <g id="04" transform="translate(25.000000, 48.000000)">
                                        <g id="Bg">
                                            <g>
                                                <path d="M15.7551078,135.028407 C18.9313137,139.426261 22.5200784,143.502038 26.4683824,147.202611 L141.110029,147.202611 C145.058333,143.502038 148.645441,139.426261 151.823304,135.028407 L15.7551078,135.028407 Z" id="Fill-1" fill="#DEF4F9"></path>
                                                <path d="M15.7552735,36.5236078 L151.82347,36.5236078 C148.645607,32.1257534 145.058499,28.0499767 141.110195,24.3494039 L26.468548,24.3494039 C22.5202441,28.0499767 18.9314794,32.1257534 15.7552735,36.5236078" id="Fill-3" fill="#DEF4F9"></path>
                                                <path d="M4.32557157,112.89254 C5.75875784,117.111093 7.5084049,121.180229 9.56291471,125.066744 L158.01616,125.066744 C160.069013,121.180229 161.81866,117.111093 163.251846,112.89254 L4.32557157,112.89254 Z" id="Fill-5" fill="#DEF4F9"></path>
                                                <g id="Group-9" transform="translate(38.107843, 0.552845)">
                                                    <mask id="mask-2" fill="white">
                                                        <use xlink:href="#path-1"></use>
                                                    </mask>
                                                    <g id="Clip-8"></g>
                                                    <path d="M90.0678873,13.8348961 C77.1890931,5.77797379 61.9824069,1.10618738 45.6805343,1.10618738 C29.3803186,1.10618738 14.1736324,5.77797379 1.29483824,13.8348961 L90.0678873,13.8348961 Z" id="Fill-7" fill="#DEF4F9" mask="url(#mask-2)"></path>
                                                </g>
                                                <path d="M9.56258333,46.4847728 C7.50973039,50.3712874 5.75842647,54.4404233 4.3252402,58.6589767 L163.253172,58.6589767 C161.818328,54.4404233 160.068681,50.3712874 158.015828,46.4847728 L9.56258333,46.4847728 Z" id="Fill-10" fill="#DEF4F9"></path>
                                                <path d="M0,90.7566728 C0.241901961,94.9021777 0.773754902,98.9679932 1.59390196,102.930877 L165.98451,102.930877 C166.804657,98.9679932 167.33651,94.9021777 167.578412,90.7566728 L0,90.7566728 Z" id="Fill-12" fill="#DEF4F9"></path>
                                                <g id="Group-16" transform="translate(38.107843, 156.611097)">
                                                    <mask id="mask-4" fill="white">
                                                        <use xlink:href="#path-3"></use>
                                                    </mask>
                                                    <g id="Clip-15"></g>
                                                    <path d="M1.29450686,0.553342718 C14.173301,8.61026505 29.3799873,13.2820515 45.6818598,13.2820515 C61.9837324,13.2820515 77.1887618,8.61026505 90.0675559,0.553342718 L1.29450686,0.553342718 Z" id="Fill-14" fill="#DEF4F9" mask="url(#mask-4)"></path>
                                                </g>
                                                <g id="Group-19" transform="translate(0.000000, 68.620806)">
                                                    <mask id="mask-6" fill="white">
                                                        <use xlink:href="#path-5"></use>
                                                    </mask>
                                                    <g id="Clip-18"></g>
                                                    <path d="M1.59357059,-0.000166019417 C0.773423529,3.96271748 0.241570588,8.02853301 -0.000331372549,12.1740379 L167.57808,12.1740379 C167.336178,8.02853301 166.804325,3.96271748 165.984178,-0.000166019417 L1.59357059,-0.000166019417 Z" id="Fill-17" fill="#DEF4F9" mask="url(#mask-6)"></path>
                                                </g>
                                            </g>
                                        </g>
                                        <g id="Fills" transform="translate(21.000000, 33.000000)">
                                            <circle id="Oval" fill="#F4EB37" cx="63" cy="63" r="37"></circle>
                                            <polygon id="Path-7" fill="#FFFFFF" points="26.1132938 63.0451028 15.5035064 20.0593769 119.505388 33.5092909 70.6521993 124.830793 1.28405815 48.3430494 98.8634341 10.7666405 99.2077489 114.855071 0.839083021 77.7321042 70.887387 0.805030387 119.2194 91.8104398 14.2918194 105.420282 40.7156276 2.96969796 126.853592 62.957613 40.8398067 123.056537"></polygon>
                                        </g>
                                        <path d="M100.711729,52.4649305 L91.7589469,55.8966195 L98.0660776,60.2972741 L105.302456,61.2006344 L100.711729,52.4649305 Z M102.798896,51.6675492 L119.150427,45.3995038 L119.150427,62.9364913 L108.090198,61.548674 L102.798896,51.6675492 Z M109.278668,63.7695434 L119.150687,65.0009309 L119.150687,75.0034993 L112.985778,70.7037463 L109.278668,63.7695434 Z M106.470385,63.421323 L101.696877,62.8258095 L108.740333,67.741308 L106.470385,63.421323 Z M119.150557,82.2308854 L119.150557,77.7493543 L115.316566,75.0595055 L119.150557,82.2308854 Z M119.150557,87.5601968 L119.150557,104.713474 L110.070764,121.691045 L98.858174,129.55375 L80.4097257,131.956009 L64.0269941,125.657732 L52.2863397,112.733022 L48.0613058,95.7464067 L52.2101591,79.4199804 L63.7122615,66.6518546 L80.5512969,60.1920832 L97.0198292,62.2460321 L110.994942,72.0315523 L119.150557,87.5601968 Z M99.5489995,50.2446812 L89.3418375,54.2063298 L80.4804463,48.029238 L91.7894972,35.4781606 L99.5489995,50.2446812 Z M101.610686,49.4422613 L121.355245,41.7763214 L121.370481,44.5469174 L121.355245,44.5519689 L121.355245,63.2142485 L142.561015,65.868827 L141.448895,67.7612816 L141.464131,67.7814619 L132.58246,84.3701549 L150,96.5174967 L148.567908,97.3703932 L133.044484,108.19051 L142.601641,126.060822 L139.605506,126.348489 L121.35466,128.634602 L121.35466,149.896297 L119.150752,149.073684 L101.574611,142.336397 L92.1191148,160 L90.6160428,158.198369 L79.2663015,145.67752 L61.036255,158.380018 L60.4979727,156.472319 L60.4878066,156.467272 L55.7600586,136.845074 L34.5997886,139.494614 L35.148237,137.84944 L39.997926,118.732392 L22.7116922,112.111126 L20,111.298604 L34.0661083,95.8248671 L20.5486043,80.9170066 L40.4244594,73.2005513 L35.4224092,52.4491816 L56.1458757,55.0431674 L61.3154973,34.6600047 L78.6732368,46.7670374 L92.0997447,32 L93.262643,33.8370298 L101.610686,49.4422613 Z M130.810221,109.745519 L121.354725,116.336553 L121.354725,126.626711 L138.503163,124.390984 L130.810221,109.745519 Z M132.028981,106.293547 L145.958593,96.5231425 L131.501176,86.3944793 L126.443356,95.8519723 L132.028981,106.293547 Z M129.809863,107.847897 L121.354725,113.77267 L121.354725,105.359851 L124.960174,98.6174004 L129.809863,107.847897 Z M121.354725,86.3484858 L121.354725,79.288214 L129.647361,85.0969697 L125.168435,93.4694794 L121.354725,86.3484858 Z M121.354725,91.7535057 L121.354725,100.595382 L123.700854,96.2148822 L121.354725,91.7535057 Z M89.3016672,56.8410251 L84.6653099,58.6174623 L93.4048902,59.7126002 L89.3016672,56.8410251 Z M86.8996379,55.1554124 L79.6124293,57.986601 L72.3353608,57.0731506 L79.0283346,49.6444134 L86.8996379,55.1554124 Z M77.2156001,48.3726524 L69.613529,56.7350849 L58.3348983,55.3219453 L62.6920133,38.1983832 L77.2156001,48.3726524 Z M121.354855,76.5385477 L121.354855,65.2742567 L139.072697,67.4846613 L130.72923,83.0785495 L121.354855,76.5385477 Z M37.890271,54.8776422 L42.2676662,72.4856871 L52.7540705,68.4130596 L55.6282636,57.0883052 L37.890271,54.8776422 Z M57.8168312,57.3606491 L55.2573706,67.4439647 L62.397288,64.6683301 L67.9020522,58.6173331 L57.8168312,57.3606491 Z M70.6392242,58.9604761 L67.1606563,62.8212231 L75.5345436,59.5711829 L70.6392242,58.9604761 Z M24.1846548,81.8022278 L35.4987718,94.2524037 L43.4003653,85.561944 L40.9476356,75.3777268 L24.1846548,81.8022278 Z M42.8112006,74.6612089 L45.0710087,83.730082 L50.3421611,77.9314036 L52.068705,71.1133733 L42.8112006,74.6612089 Z M54.567195,70.1544848 L53.4601582,74.4997146 L58.9343721,68.4841171 L54.567195,70.1544848 Z M49.082711,82.8873402 L46.9549839,91.3001589 L45.7768494,86.5663093 L49.082711,82.8873402 Z M44.0960009,88.4286614 L45.8429549,95.6807883 L43.8675891,103.462746 L37.1796853,96.1046785 L44.0960009,88.4286614 Z M35.7576039,97.6893897 L43.237734,105.940714 L40.5311122,116.619491 L24.3212859,110.381807 L35.7576039,97.6893897 Z M37.4283773,137.552639 L55.3698215,135.216011 L52.5564689,123.548113 L42.0192342,119.510756 L37.4283773,137.552639 Z M42.5573085,117.395568 L51.941824,121.009035 L50.1492395,113.565182 L44.979618,107.862367 L42.5573085,117.395568 Z M45.6093431,105.37936 L49.1031211,109.23003 L46.9296337,100.196427 L45.6093431,105.37936 Z M53.3840555,117.128134 L59.5540351,123.931048 L54.6028153,122.028387 L53.3840555,117.128134 Z M55.2376104,124.577025 L62.7430908,127.453691 L68.2630651,133.539958 L57.8070811,134.902582 L55.2376104,124.577025 Z M58.2134644,136.53768 L69.6799465,135.104386 L77.9472329,144.218736 L62.773511,154.862239 L58.2134644,136.53768 Z M91.6731333,156.078484 L99.4579858,141.523331 L90.271592,138.000689 L81.0750581,144.414983 L91.6731333,156.078484 Z M79.7495674,142.957401 L88.032064,137.143606 L79.4956754,133.873412 L72.3101276,134.77172 L79.7495674,142.957401 Z M70.8831062,133.197074 L75.9917572,132.530916 L67.2217567,129.169768 L70.8831062,133.197074 Z M83.9443111,133.318194 L95.5682246,131.859707 L90.1142907,135.690093 L83.9443111,133.318194 Z M92.3538187,136.553119 L99.854229,131.324709 L105.277743,130.64341 L100.453534,139.666935 L92.3538187,136.553119 Z M102.566051,140.479497 L108.009845,130.305357 L119.151324,128.907462 L119.151324,146.859167 L102.566051,140.479497 Z M119.151597,126.908809 L119.151597,117.870168 L111.991387,122.861375 L109.127334,128.215879 L119.151597,126.908809 Z M106.390175,128.574267 L107.928867,125.697602 L103.206189,128.98808 L106.390175,128.574267 Z M114.149677,118.829056 L119.151727,109.477504 L119.151727,115.32153 L114.149677,118.829056 Z" id="ico.Design" fill="#000000"></path>
                                    </g>
                                </g>
                            </g>
                        </g>
                    </g>
                </g>
            </g>
        </g>
    </g>
</svg>