<?xml version="1.0" encoding="UTF-8" standalone="no"?>
<!DOCTYPE svg PUBLIC "-//W3C//DTD SVG 1.1//EN" "http://www.w3.org/Graphics/SVG/1.1/DTD/svg11.dtd">
<svg width="100%" height="100%" viewBox="0 0 105 115" version="1.1" xmlns="http://www.w3.org/2000/svg" xmlns:xlink="http://www.w3.org/1999/xlink" xml:space="preserve" style="fill-rule:evenodd;clip-rule:evenodd;stroke-linejoin:round;stroke-miterlimit:1.41421;">
    <g id="Logo" transform="matrix(1.03309,0,0,1.04925,-9.48546,-5.45493)">
        <rect x="9.182" y="5.199" width="101.637" height="109.602" style="fill:none;"/>
        <g id="logo" transform="matrix(4.46341,0,0,3.97109,-368.726,-41.3098)">
            <g transform="matrix(0.903614,0,0,1,0,0)">
                <path d="M111.868,13.266C111.724,13.29 111.622,13.352 111.533,13.425C111.302,13.615 111.069,13.804 110.854,14.011C110.435,14.417 110.1,14.885 109.861,15.421C109.641,15.914 109.408,16.4 109.181,16.889C109.131,16.997 109.094,17.108 109.11,17.23C109.129,17.369 109.224,17.452 109.352,17.426C109.516,17.391 109.675,17.338 109.787,17.2C110.003,16.933 110.217,16.666 110.432,16.398C110.5,16.314 110.561,16.226 110.635,16.148C110.823,15.951 110.973,15.728 111.112,15.496C111.355,15.09 111.514,14.646 111.684,14.208C111.768,13.99 111.813,13.756 111.865,13.527C111.883,13.45 111.868,13.365 111.868,13.266M111.299,22.257C111.311,22.257 111.323,22.257 111.335,22.258C111.353,22.158 111.372,22.059 111.39,21.96C111.495,21.391 111.667,20.839 111.823,20.283C111.855,20.172 111.91,20.064 111.972,19.966C112.133,19.712 112.137,19.715 112.043,19.432C112.032,19.4 112.021,19.367 112.008,19.336C111.872,19.005 111.74,18.673 111.601,18.344C111.484,18.07 111.373,17.792 111.201,17.545C111.034,17.306 111.036,17.305 110.749,17.309C110.705,17.309 110.66,17.306 110.617,17.313C110.58,17.319 110.537,17.33 110.51,17.354C110.33,17.513 110.154,17.675 109.977,17.837C109.926,17.884 109.92,17.934 109.963,17.992C110.003,18.048 110.039,18.107 110.075,18.165C110.402,18.674 110.681,19.206 110.824,19.8C110.86,19.952 110.892,20.107 110.945,20.254C111.107,20.699 111.181,21.162 111.232,21.63C111.255,21.839 111.277,22.048 111.299,22.257M105.703,16.608C105.665,16.352 105.639,16.109 105.591,15.87C105.527,15.548 105.444,15.231 105.37,14.911C105.27,14.475 105.131,14.053 104.94,13.648C104.832,13.419 104.689,13.215 104.487,13.061C104.32,12.933 104.156,12.935 103.986,13.058C103.827,13.171 103.723,13.325 103.699,13.519C103.669,13.763 103.664,14.008 103.732,14.248C103.773,14.394 103.809,14.542 103.858,14.686C104.058,15.274 104.263,15.861 104.463,16.449C104.493,16.537 104.543,16.567 104.634,16.57C104.849,16.576 105.064,16.597 105.279,16.606C105.415,16.612 105.551,16.608 105.703,16.608M114.417,26.543C114.45,26.537 114.469,26.538 114.486,26.531C114.698,26.443 114.913,26.358 115.122,26.263C115.191,26.231 115.259,26.181 115.307,26.123C115.475,25.918 115.634,25.706 115.703,25.442C115.722,25.367 115.753,25.294 115.781,25.22C115.954,24.755 116.072,24.273 116.164,23.789C116.235,23.42 116.254,23.039 116.264,22.663C116.286,21.883 116.178,21.108 116.124,20.331C116.102,20.004 116.054,19.679 116.032,19.351C115.995,18.793 115.79,18.307 115.434,17.88C115.331,17.757 115.206,17.666 115.062,17.598C114.702,17.43 114.321,17.348 113.927,17.319C113.88,17.315 113.832,17.318 113.761,17.318C113.794,17.374 113.814,17.41 113.836,17.445C114.036,17.765 114.243,18.081 114.435,18.405C114.733,18.91 114.878,19.471 114.998,20.037C115.095,20.493 115.091,20.962 115.108,21.427C115.123,21.858 115.13,22.289 115.139,22.72C115.147,23.107 115.155,23.494 115.082,23.877C115.011,24.25 114.877,24.601 114.73,24.949C114.632,25.183 114.531,25.416 114.521,25.679C114.514,25.883 114.479,26.087 114.455,26.291C114.445,26.372 114.431,26.452 114.417,26.543M107.283,19.399C107.26,19.332 107.242,19.272 107.219,19.214C107.185,19.127 107.143,19.043 107.112,18.956C106.988,18.605 106.785,18.298 106.57,18C106.433,17.81 106.274,17.637 106.092,17.483C105.959,17.371 105.815,17.324 105.65,17.316C104.891,17.279 104.132,17.253 103.372,17.275C102.573,17.298 101.774,17.318 100.976,17.339C100.363,17.356 99.751,17.361 99.141,17.434C98.419,17.521 97.705,17.637 97.012,17.862C96.983,17.871 96.958,17.89 96.931,17.906C97.093,18.144 97.076,18.336 96.884,18.537C96.86,18.562 96.837,18.588 96.812,18.611C96.559,18.828 96.317,19.056 96.109,19.32C95.998,19.461 95.857,19.569 95.678,19.609C95.583,19.63 95.483,19.631 95.386,19.644C95.267,19.66 95.244,19.683 95.244,19.804C95.246,19.976 95.25,20.148 95.258,20.319C95.295,21.063 95.331,21.807 95.37,22.551C95.402,23.149 95.441,23.745 95.473,24.342C95.497,24.792 95.521,25.243 95.535,25.693C95.545,26.021 95.545,26.35 95.539,26.679C95.534,27.009 95.642,27.304 95.787,27.591C95.807,27.63 95.835,27.666 95.865,27.697C96.178,28.026 96.545,28.271 96.976,28.419C97.498,28.598 98.04,28.631 98.584,28.653C99.021,28.671 99.456,28.64 99.891,28.591C100.631,28.508 101.372,28.437 102.111,28.342C102.548,28.287 102.979,28.192 103.414,28.12C103.756,28.064 104.077,27.948 104.387,27.798C104.608,27.692 104.792,27.546 104.919,27.33C105.038,27.128 105.104,26.909 105.148,26.682C105.233,26.248 105.249,25.807 105.292,25.368C105.315,25.129 105.326,24.889 105.36,24.651C105.449,24.025 105.536,23.399 105.644,22.777C105.722,22.328 105.827,21.884 105.933,21.441C106.039,20.998 106.182,20.565 106.384,20.154C106.505,19.908 106.665,19.694 106.917,19.566C107.03,19.509 107.147,19.461 107.283,19.399M112.237,30.895C112.27,30.85 112.302,30.807 112.332,30.764C112.543,30.461 112.697,30.127 112.858,29.796C112.975,29.558 113.083,29.318 113.131,29.054C113.152,28.943 113.188,28.836 113.216,28.727C113.296,28.418 113.39,28.113 113.45,27.801C113.558,27.243 113.644,26.681 113.742,26.121C113.803,25.771 113.792,25.418 113.796,25.065C113.8,24.718 113.806,24.37 113.827,24.023C113.847,23.691 113.888,23.36 113.919,23.028C113.934,22.867 113.944,22.705 113.96,22.545C114.009,22.052 114.07,21.562 114.023,21.064C113.99,20.71 113.945,20.364 113.732,20.063C113.665,19.967 113.589,19.878 113.472,19.861C113.239,19.829 113.018,19.87 112.847,20.046C112.707,20.19 112.587,20.35 112.527,20.55C112.394,20.991 112.276,21.436 112.191,21.889C112.143,22.144 112.07,22.395 112.029,22.651C111.993,22.88 111.889,23.074 111.735,23.233C111.459,23.518 111.135,23.73 110.732,23.809C110.408,23.873 110.091,23.885 109.778,23.764C109.469,23.644 109.22,23.451 109.092,23.139C108.974,22.848 108.893,22.543 108.855,22.231C108.816,21.915 108.796,21.597 108.76,21.281C108.74,21.106 108.709,20.931 108.672,20.759C108.631,20.567 108.516,20.428 108.346,20.326C108.152,20.211 107.943,20.141 107.722,20.124C107.443,20.103 107.209,20.191 107.075,20.461C106.94,20.733 106.839,21.018 106.751,21.31C106.592,21.842 106.488,22.386 106.391,22.931C106.33,23.278 106.291,23.63 106.249,23.98C106.149,24.802 106.06,25.625 105.953,26.446C105.914,26.741 105.854,27.036 105.772,27.322C105.641,27.777 105.361,28.133 104.958,28.381C104.588,28.609 104.187,28.765 103.76,28.849C103.659,28.869 103.557,28.887 103.456,28.904C103.074,28.968 102.693,29.041 102.31,29.093C101.98,29.138 101.646,29.15 101.316,29.195C100.445,29.313 99.574,29.404 98.694,29.384C98.672,29.384 98.65,29.394 98.617,29.401C98.634,29.447 98.644,29.485 98.662,29.518C98.841,29.855 99.015,30.195 99.202,30.528C99.361,30.809 99.587,31.032 99.851,31.211C99.867,31.206 99.878,31.206 99.885,31.2C99.974,31.123 100.062,31.045 100.151,30.969C100.279,30.858 100.433,30.856 100.55,30.962C100.662,31.064 100.68,31.215 100.59,31.347C100.536,31.426 100.473,31.498 100.411,31.577C100.546,31.671 100.662,31.772 100.795,31.842C101.068,31.985 101.346,32.118 101.628,32.244C101.937,32.382 102.258,32.488 102.588,32.566C102.817,32.619 103.045,32.678 103.272,32.739C103.619,32.831 103.974,32.891 104.33,32.91C104.98,32.945 105.63,32.971 106.282,32.895C106.817,32.832 107.357,32.812 107.887,32.706C108.267,32.629 108.647,32.557 109.025,32.476C109.27,32.424 109.514,32.369 109.753,32.298C110.124,32.188 110.5,32.086 110.856,31.938C111.139,31.821 111.396,31.641 111.663,31.486C111.712,31.457 111.751,31.413 111.797,31.375C111.746,31.271 111.698,31.181 111.655,31.088C111.607,30.983 111.621,30.886 111.702,30.803C111.784,30.72 111.885,30.708 111.987,30.754C112.066,30.79 112.14,30.84 112.237,30.895M106.354,16.646C106.535,16.652 106.71,16.663 106.885,16.664C107.444,16.666 108.003,16.665 108.562,16.664C108.67,16.664 108.668,16.658 108.724,16.533C108.96,15.995 109.191,15.454 109.441,14.921C109.698,14.373 110.082,13.915 110.517,13.498C110.772,13.254 111.029,13.011 111.338,12.833C111.492,12.744 111.655,12.683 111.832,12.653C111.958,12.631 112.077,12.649 112.193,12.689C112.372,12.751 112.432,12.914 112.483,13.072C112.546,13.271 112.541,13.479 112.52,13.685C112.483,14.047 112.401,14.4 112.262,14.738C112.147,15.014 112.044,15.295 111.916,15.565C111.746,15.925 111.534,16.26 111.269,16.56C111.263,16.566 111.261,16.577 111.25,16.604C111.289,16.609 111.323,16.617 111.357,16.617C112.117,16.616 112.877,16.613 113.637,16.614C114.233,16.616 114.807,16.723 115.353,16.967C115.638,17.095 115.861,17.298 116.05,17.541C116.381,17.966 116.61,18.439 116.684,18.976C116.733,19.326 116.766,19.677 116.799,20.028C116.845,20.526 116.885,21.024 116.927,21.522C116.929,21.541 116.935,21.559 116.941,21.581C117.013,21.599 117.088,21.605 117.152,21.635C117.254,21.68 117.354,21.734 117.445,21.798C117.532,21.86 117.531,21.922 117.451,21.99C117.345,22.079 117.23,22.152 117.089,22.178C116.963,22.201 116.96,22.203 116.964,22.328C116.984,22.904 116.912,23.473 116.81,24.038C116.794,24.13 116.777,24.222 116.769,24.314C116.74,24.646 116.632,24.955 116.513,25.262C116.452,25.422 116.386,25.58 116.32,25.738C116.162,26.112 115.944,26.449 115.679,26.754C115.626,26.815 115.557,26.87 115.484,26.903C115.132,27.066 114.777,27.22 114.424,27.376C114.314,27.425 114.246,27.5 114.224,27.627C114.142,28.121 114.026,28.606 113.88,29.086C113.838,29.226 113.817,29.374 113.765,29.511C113.667,29.766 113.556,30.017 113.446,30.268C113.398,30.379 113.392,30.377 113.489,30.46C113.515,30.482 113.541,30.505 113.565,30.529C113.674,30.643 113.794,30.736 113.942,30.802C114.154,30.897 114.234,31.044 114.21,31.243C114.206,31.28 114.194,31.321 114.173,31.352C114.079,31.492 113.839,31.56 113.673,31.516C113.488,31.467 113.354,31.353 113.236,31.212C113.186,31.152 113.133,31.095 113.064,31.018C112.978,31.15 112.9,31.266 112.825,31.384C112.795,31.431 112.824,31.472 112.861,31.498C112.937,31.551 113.014,31.605 113.097,31.644C113.246,31.714 113.337,31.825 113.379,31.981C113.42,32.134 113.328,32.291 113.172,32.331C113.158,32.335 113.143,32.335 113.129,32.338C112.728,32.419 112.736,32.347 112.519,32.146C112.458,32.09 112.397,32.033 112.34,31.98C112.324,31.981 112.311,31.978 112.305,31.982C111.945,32.273 111.546,32.502 111.135,32.711C111.087,32.735 111.036,32.754 110.986,32.773C110.539,32.937 110.081,33.059 109.618,33.171C108.875,33.352 108.127,33.506 107.374,33.639C106.92,33.719 106.462,33.773 106.002,33.778C105.472,33.784 104.943,33.772 104.414,33.765C104.133,33.761 103.86,33.702 103.587,33.639C103.334,33.58 103.079,33.534 102.826,33.474C102.536,33.404 102.246,33.33 101.958,33.25C101.827,33.213 101.701,33.157 101.573,33.107C101.428,33.05 101.283,32.99 101.138,32.93C101.065,32.9 101.008,32.907 100.963,32.981C100.846,33.179 100.717,33.37 100.609,33.573C100.537,33.706 100.435,33.776 100.294,33.775C100.157,33.775 100.056,33.699 99.995,33.573C99.925,33.427 99.904,33.272 99.925,33.114C99.934,33.055 99.971,32.997 100.005,32.944C100.092,32.81 100.185,32.679 100.286,32.532C100.122,32.426 99.968,32.326 99.818,32.229C99.717,32.3 99.714,32.398 99.695,32.487C99.666,32.633 99.615,32.769 99.524,32.889C99.408,33.042 99.135,33.116 98.998,32.866C98.872,32.635 98.803,32.38 98.958,32.125C98.987,32.076 99.031,32.035 99.069,31.992C99.116,31.938 99.165,31.886 99.221,31.824C99.17,31.78 99.135,31.748 99.097,31.718C98.738,31.436 98.491,31.069 98.293,30.665C98.274,30.625 98.257,30.584 98.233,30.547C98.004,30.207 97.854,29.829 97.701,29.452C97.657,29.343 97.603,29.284 97.476,29.259C96.909,29.151 96.384,28.938 95.941,28.559C95.764,28.406 95.601,28.233 95.448,28.056C95.374,27.97 95.326,27.855 95.284,27.747C95.161,27.434 95.094,27.109 95.096,26.77C95.099,26.383 95.108,25.995 95.095,25.608C95.076,25.055 95.04,24.502 95.012,23.949C94.981,23.352 94.949,22.755 94.92,22.157C94.892,21.594 94.877,21.03 94.837,20.468C94.811,20.09 94.815,19.714 94.836,19.337C94.852,19.055 94.919,18.785 95.032,18.526C95.139,18.28 95.317,18.083 95.504,17.895C95.776,17.622 96.118,17.483 96.484,17.387C96.792,17.307 97.094,17.204 97.404,17.131C97.838,17.028 98.274,16.936 98.712,16.854C99.442,16.718 100.182,16.688 100.923,16.668C101.795,16.643 102.667,16.61 103.539,16.582C103.659,16.578 103.78,16.576 103.922,16.573C103.873,16.454 103.834,16.356 103.793,16.258C103.612,15.824 103.457,15.38 103.337,14.925C103.261,14.636 103.175,14.35 103.1,14.06C102.978,13.582 103.112,13.161 103.402,12.778C103.583,12.538 103.827,12.404 104.122,12.366C104.371,12.335 104.597,12.419 104.802,12.553C105.118,12.761 105.339,13.055 105.494,13.394C105.847,14.164 106.088,14.97 106.228,15.806C106.274,16.08 106.31,16.356 106.354,16.646" style="fill:rgb(21,18,18);fill-rule:nonzero;"/>
            </g>
            <g transform="matrix(0.903614,0,0,1,0,0)">
                <path d="M96.411,30.638C96.28,30.563 96.183,30.497 96.078,30.449C95.945,30.388 95.807,30.335 95.668,30.289C95.566,30.256 95.458,30.245 95.355,30.215C95.049,30.127 94.744,30.036 94.439,29.943C94.328,29.909 94.241,29.838 94.178,29.739C94.081,29.585 94.076,29.414 94.175,29.284C94.284,29.141 94.434,29.089 94.607,29.132C94.858,29.196 95.106,29.271 95.356,29.34C95.441,29.364 95.528,29.38 95.612,29.406C95.776,29.456 95.938,29.509 96.1,29.562C96.132,29.573 96.161,29.594 96.193,29.604C96.431,29.678 96.635,29.81 96.839,29.947C96.974,30.037 97.084,30.154 97.157,30.287C97.252,30.459 97.276,30.653 97.212,30.854C97.126,31.118 96.939,31.302 96.742,31.48C96.625,31.584 96.491,31.671 96.419,31.817C96.402,31.85 96.39,31.886 96.368,31.941C96.428,31.941 96.47,31.945 96.511,31.94C96.793,31.904 97.069,31.922 97.331,32.039C97.53,32.128 97.661,32.28 97.701,32.498C97.759,32.813 97.712,33.109 97.547,33.388C97.353,33.717 97.168,34.051 96.975,34.381C96.938,34.443 96.891,34.502 96.84,34.554C96.725,34.669 96.544,34.669 96.428,34.559C96.372,34.506 96.336,34.441 96.358,34.362C96.387,34.254 96.409,34.141 96.457,34.041C96.615,33.715 96.783,33.394 96.948,33.072C97.024,32.925 97.037,32.795 96.976,32.65C96.866,32.655 96.749,32.656 96.634,32.667C96.526,32.676 96.421,32.702 96.313,32.709C96.137,32.722 95.971,32.668 95.824,32.581C95.655,32.48 95.603,32.296 95.564,32.119C95.498,31.819 95.586,31.551 95.764,31.305C95.866,31.164 95.99,31.049 96.12,30.937C96.214,30.854 96.296,30.757 96.411,30.638Z" style="fill:rgb(21,18,18);fill-rule:nonzero;"/>
            </g>
            <g transform="matrix(0.903614,0,0,1,0,0)">
                <path d="M107.935,38.022C107.902,37.756 107.871,37.5 107.837,37.244C107.817,37.099 107.797,36.953 107.766,36.81C107.754,36.751 107.713,36.697 107.682,36.643C107.665,36.614 107.64,36.59 107.622,36.561C107.522,36.396 107.594,36.232 107.781,36.196C107.858,36.182 107.935,36.169 108.013,36.16C108.099,36.149 108.179,36.167 108.248,36.223C108.311,36.274 108.346,36.367 108.305,36.434C108.204,36.598 108.237,36.775 108.273,36.934C108.349,37.267 108.462,37.593 108.561,37.921C108.563,37.929 108.574,37.934 108.59,37.948C108.74,37.892 108.901,37.848 109.048,37.774C109.186,37.706 109.266,37.576 109.283,37.422C109.305,37.218 109.322,37.012 109.327,36.807C109.339,36.327 109.342,35.847 109.348,35.367C109.351,35.154 109.435,34.977 109.594,34.838C109.759,34.695 110.066,34.812 110.116,35.034C110.144,35.161 110.132,35.289 110.087,35.41C109.997,35.658 109.965,35.914 109.962,36.175C109.958,36.537 109.961,36.9 109.957,37.263C109.954,37.559 109.868,37.834 109.717,38.086C109.606,38.269 109.427,38.369 109.232,38.447C108.71,38.657 108.163,38.683 107.613,38.655C107.37,38.642 107.131,38.582 106.918,38.442C106.684,38.289 106.541,38.07 106.469,37.81C106.369,37.446 106.307,37.074 106.292,36.695C106.288,36.614 106.265,36.531 106.235,36.454C106.188,36.331 106.124,36.214 106.076,36.091C106.049,36.024 106.029,35.951 106.025,35.879C106.014,35.649 106.214,35.5 106.429,35.578C106.563,35.626 106.667,35.711 106.713,35.855C106.818,36.183 106.888,36.517 106.884,36.864C106.881,37.138 106.963,37.396 107.044,37.653C107.091,37.803 107.201,37.898 107.355,37.939C107.43,37.959 107.507,37.977 107.584,37.987C107.695,38.002 107.807,38.01 107.935,38.022Z" style="fill:rgb(21,18,18);fill-rule:nonzero;"/>
            </g>
            <g transform="matrix(0.903614,0,0,1,0,0)">
                <path d="M112.513,34.769C112.533,34.622 112.544,34.491 112.569,34.364C112.642,33.978 112.914,33.687 113.319,33.653C113.528,33.636 113.73,33.696 113.887,33.816C114.178,34.04 114.471,34.26 114.765,34.48C114.965,34.628 115.145,34.804 115.334,34.967C115.409,35.031 115.487,35.09 115.562,35.152C115.729,35.288 115.718,35.453 115.538,35.573C115.427,35.647 115.313,35.672 115.192,35.604C115.086,35.544 114.978,35.486 114.881,35.413C114.737,35.304 114.604,35.18 114.463,35.066C114.367,34.989 114.265,34.922 114.168,34.847C113.978,34.702 113.79,34.553 113.598,34.409C113.549,34.372 113.49,34.344 113.434,34.317C113.378,34.291 113.335,34.316 113.316,34.368C113.293,34.427 113.274,34.489 113.266,34.551C113.254,34.648 113.245,34.746 113.247,34.844C113.251,34.999 113.183,35.128 113.115,35.258C113.051,35.382 112.937,35.458 112.824,35.52C112.72,35.577 112.594,35.601 112.475,35.623C112.374,35.641 112.28,35.597 112.206,35.528C112.099,35.428 111.998,35.321 111.895,35.217C111.864,35.186 111.837,35.15 111.801,35.126C111.629,35.009 111.472,35.044 111.375,35.23C111.333,35.31 111.3,35.404 111.294,35.494C111.263,35.958 111.24,36.422 111.219,36.887C111.21,37.097 111.218,37.308 111.211,37.518C111.205,37.728 111.034,37.89 110.83,37.888C110.625,37.886 110.452,37.722 110.458,37.511C110.471,37.046 110.496,36.581 110.518,36.117C110.527,35.926 110.546,35.736 110.552,35.545C110.56,35.267 110.642,35.013 110.794,34.785C110.915,34.602 111.091,34.475 111.293,34.39C111.583,34.269 111.857,34.325 112.124,34.467C112.238,34.527 112.346,34.591 112.424,34.697C112.443,34.721 112.473,34.737 112.513,34.769Z" style="fill:rgb(21,18,18);fill-rule:nonzero;"/>
            </g>
            <g transform="matrix(0.903614,0,0,1,0,0)">
                <path d="M117.864,28.855C117.836,28.848 117.826,28.842 117.817,28.844C117.445,28.913 117.068,28.918 116.691,28.931C116.512,28.937 116.325,28.953 116.156,29.008C115.884,29.097 115.687,29.283 115.598,29.568C115.571,29.653 115.584,29.721 115.662,29.772C115.809,29.868 115.953,29.969 116.103,30.061C116.391,30.239 116.679,30.415 116.971,30.584C117.084,30.649 117.208,30.696 117.331,30.752C117.346,30.723 117.358,30.707 117.362,30.69C117.423,30.435 117.526,30.199 117.655,29.972C117.717,29.861 117.77,29.744 117.809,29.623C117.89,29.374 117.92,29.119 117.864,28.855M118.496,29.099C118.485,29.578 118.36,29.984 118.12,30.355C117.985,30.565 117.897,30.793 117.912,31.047C117.929,31.33 117.961,31.612 117.985,31.894C117.99,31.953 117.997,32.012 117.991,32.07C117.971,32.245 117.784,32.331 117.638,32.232C117.552,32.172 117.487,32.09 117.462,31.986C117.425,31.834 117.391,31.681 117.365,31.527C117.354,31.456 117.328,31.418 117.261,31.387C116.777,31.161 116.302,30.919 115.862,30.614C115.661,30.474 115.451,30.348 115.253,30.205C115.129,30.115 115.028,29.999 115.004,29.838C114.993,29.767 114.987,29.693 114.991,29.621C115.028,28.94 115.562,28.476 116.05,28.331C116.355,28.241 116.668,28.24 116.98,28.217C117.18,28.201 117.379,28.174 117.579,28.155C117.656,28.147 117.696,28.118 117.717,28.034C117.753,27.883 117.874,27.797 118.015,27.799C118.162,27.801 118.283,27.896 118.315,28.052C118.374,28.335 118.428,28.618 118.48,28.902C118.494,28.979 118.493,29.058 118.496,29.099" style="fill:rgb(21,18,18);fill-rule:nonzero;"/>
            </g>
            <g transform="matrix(0.903614,0,0,1,0,0)">
                <path d="M102.376,37.66C102.387,37.593 102.396,37.55 102.399,37.507C102.44,37.049 102.406,36.597 102.282,36.155C102.252,36.05 102.193,35.948 102.129,35.858C102.038,35.731 101.866,35.681 101.722,35.741C101.625,35.781 101.529,35.839 101.454,35.912C101.264,36.096 101.105,36.309 100.972,36.539C100.893,36.677 100.822,36.819 100.743,36.968C101.255,37.284 101.762,37.572 102.376,37.66M102.993,37.675C103.117,37.622 103.216,37.582 103.313,37.538C103.422,37.488 103.529,37.475 103.636,37.539C103.802,37.638 103.85,37.845 103.729,37.995C103.644,38.102 103.542,38.188 103.41,38.246C103.034,38.413 102.649,38.416 102.258,38.329C102.03,38.278 101.8,38.223 101.581,38.14C101.399,38.071 101.231,37.966 101.062,37.866C100.872,37.755 100.688,37.632 100.502,37.514C100.439,37.474 100.377,37.446 100.297,37.449C100.242,37.451 100.179,37.43 100.131,37.402C100.007,37.33 99.888,37.338 99.768,37.404C99.7,37.442 99.636,37.488 99.567,37.526C99.432,37.599 99.312,37.565 99.215,37.429C99.149,37.336 99.165,37.2 99.263,37.108C99.401,36.98 99.56,36.883 99.743,36.834C99.818,36.814 99.897,36.802 99.975,36.803C100.061,36.803 100.104,36.768 100.145,36.694C100.277,36.454 100.407,36.211 100.561,35.985C100.692,35.791 100.845,35.609 101.005,35.439C101.229,35.201 101.511,35.065 101.842,35.071C102.21,35.078 102.495,35.245 102.699,35.555C102.811,35.726 102.874,35.913 102.919,36.111C103.026,36.579 103.067,37.049 103.002,37.527C102.997,37.565 102.997,37.603 102.993,37.675" style="fill:rgb(21,18,18);fill-rule:nonzero;"/>
            </g>
            <g transform="matrix(0.903614,0,0,1,0,0)">
                <path d="M98.092,34.839C97.881,35.163 97.769,35.479 97.922,35.838C97.946,35.894 97.991,35.948 98.04,35.982C98.18,36.08 98.324,36.175 98.474,36.257C98.544,36.296 98.632,36.305 98.712,36.326C98.933,36.383 99.047,36.606 98.952,36.806C98.892,36.932 98.789,37.003 98.65,37.005C98.434,37.009 98.234,36.954 98.055,36.829C97.878,36.707 97.693,36.595 97.523,36.463C97.391,36.361 97.293,36.225 97.254,36.055C97.221,35.912 97.161,35.779 97.154,35.628C97.141,35.353 97.179,35.087 97.296,34.842C97.473,34.471 97.665,34.105 97.919,33.78C98.06,33.599 98.217,33.434 98.442,33.345C98.589,33.286 98.73,33.299 98.875,33.319C99.162,33.358 99.396,33.505 99.609,33.692C99.8,33.861 99.986,34.035 100.131,34.247C100.172,34.307 100.216,34.367 100.251,34.431C100.319,34.555 100.291,34.692 100.188,34.776C100.089,34.857 99.954,34.862 99.849,34.778C99.765,34.712 99.676,34.645 99.611,34.561C99.46,34.366 99.254,34.245 99.062,34.101C98.976,34.037 98.88,34.011 98.778,33.992C98.715,33.98 98.662,33.991 98.618,34.04C98.566,34.098 98.512,34.155 98.461,34.215C98.416,34.266 98.413,34.321 98.46,34.373C98.583,34.512 98.702,34.656 98.833,34.787C98.897,34.852 98.982,34.898 99.061,34.944C99.227,35.042 99.287,35.224 99.2,35.384C99.114,35.541 98.921,35.595 98.754,35.508C98.517,35.385 98.348,35.189 98.193,34.979C98.165,34.94 98.136,34.9 98.092,34.839Z" style="fill:rgb(21,18,18);fill-rule:nonzero;"/>
            </g>
            <g transform="matrix(0.903614,0,0,1,0,0)">
                <path d="M114.227,32.835C114.466,32.993 114.689,33.14 114.924,33.295C115.001,33.079 115.078,32.865 115.154,32.65C115.162,32.627 115.166,32.603 115.172,32.579C115.226,32.399 115.383,32.3 115.553,32.34C115.73,32.382 115.827,32.547 115.785,32.738C115.731,32.985 115.622,33.209 115.505,33.431C115.485,33.469 115.462,33.507 115.436,33.555C115.465,33.574 115.489,33.597 115.518,33.609C115.671,33.674 115.827,33.733 115.979,33.8C116.096,33.852 116.188,33.842 116.281,33.742C116.359,33.657 116.426,33.571 116.462,33.462C116.522,33.276 116.612,33.098 116.612,32.897C116.612,32.824 116.607,32.75 116.594,32.679C116.56,32.491 116.637,32.347 116.804,32.296C116.959,32.248 117.102,32.326 117.179,32.497C117.294,32.752 117.273,33.016 117.212,33.274C117.163,33.478 117.084,33.674 117.014,33.873C116.936,34.098 116.754,34.237 116.578,34.376C116.337,34.567 116.062,34.547 115.796,34.447C115.379,34.29 114.982,34.087 114.598,33.859C114.486,33.793 114.395,33.691 114.289,33.612C114.195,33.543 114.093,33.484 113.994,33.422C113.858,33.337 113.745,33.229 113.671,33.087C113.607,32.963 113.624,32.827 113.66,32.7C113.724,32.476 113.84,32.275 113.986,32.095C114.177,31.859 114.378,31.631 114.58,31.405C114.631,31.348 114.699,31.302 114.766,31.264C114.858,31.213 114.955,31.229 115.025,31.294C115.094,31.359 115.115,31.454 115.072,31.551C115.039,31.627 115.005,31.705 114.957,31.772C114.823,31.959 114.687,32.145 114.539,32.321C114.408,32.476 114.296,32.638 114.227,32.835Z" style="fill:rgb(21,18,18);fill-rule:nonzero;"/>
            </g>
            <g transform="matrix(0.903614,0,0,1,0,0)">
                <path d="M108.756,25.838C108.759,26.015 108.871,26.13 109.037,26.128C109.181,26.126 109.299,26.006 109.296,25.865C109.293,25.722 109.152,25.574 109.016,25.572C108.889,25.57 108.754,25.708 108.756,25.838M112.697,25.851C112.699,25.693 112.58,25.558 112.434,25.552C112.276,25.546 112.129,25.683 112.123,25.842C112.117,26 112.246,26.135 112.405,26.138C112.563,26.14 112.695,26.011 112.697,25.851M111.192,26.701C111.057,26.702 110.896,26.748 110.803,26.807C110.692,26.879 110.662,26.989 110.739,27.095C110.81,27.193 110.893,27.284 110.974,27.375C111.014,27.42 111.065,27.431 111.12,27.399C111.216,27.341 111.315,27.287 111.407,27.222C111.529,27.136 111.571,26.917 111.48,26.831C111.399,26.754 111.305,26.687 111.192,26.701M112.237,30.895C112.14,30.84 112.066,30.79 111.987,30.754C111.885,30.708 111.784,30.72 111.702,30.803C111.621,30.886 111.607,30.983 111.655,31.088C111.698,31.18 111.745,31.271 111.797,31.375C111.751,31.413 111.712,31.457 111.663,31.486C111.396,31.641 111.139,31.821 110.856,31.938C110.5,32.086 110.124,32.188 109.753,32.298C109.514,32.369 109.27,32.424 109.025,32.476C108.647,32.557 108.267,32.629 107.887,32.706C107.357,32.812 106.817,32.832 106.282,32.895C105.63,32.971 104.98,32.945 104.33,32.91C103.974,32.891 103.619,32.831 103.272,32.739C103.045,32.678 102.817,32.619 102.588,32.566C102.258,32.488 101.937,32.382 101.628,32.244C101.346,32.118 101.068,31.985 100.795,31.842C100.662,31.772 100.546,31.671 100.411,31.577C100.473,31.498 100.536,31.426 100.59,31.347C100.68,31.215 100.662,31.064 100.55,30.961C100.433,30.856 100.279,30.858 100.151,30.969C100.062,31.045 99.974,31.123 99.885,31.2C99.878,31.206 99.867,31.206 99.851,31.211C99.587,31.032 99.361,30.809 99.202,30.528C99.015,30.195 98.841,29.855 98.662,29.518C98.644,29.485 98.634,29.447 98.617,29.401C98.65,29.394 98.672,29.384 98.693,29.384C99.574,29.404 100.446,29.313 101.316,29.195C101.646,29.15 101.98,29.138 102.31,29.093C102.694,29.041 103.074,28.968 103.456,28.904C103.557,28.887 103.659,28.869 103.759,28.849C104.187,28.765 104.588,28.609 104.958,28.381C105.361,28.133 105.641,27.777 105.772,27.322C105.854,27.036 105.914,26.741 105.953,26.446C106.06,25.625 106.149,24.802 106.249,23.98C106.291,23.63 106.33,23.278 106.391,22.931C106.488,22.386 106.592,21.842 106.751,21.31C106.839,21.018 106.94,20.733 107.075,20.461C107.21,20.191 107.443,20.103 107.722,20.124C107.943,20.141 108.152,20.21 108.346,20.326C108.516,20.427 108.631,20.567 108.672,20.759C108.709,20.932 108.739,21.106 108.76,21.281C108.796,21.597 108.816,21.915 108.855,22.231C108.893,22.543 108.974,22.848 109.092,23.139C109.22,23.451 109.469,23.644 109.778,23.764C110.092,23.885 110.408,23.873 110.732,23.809C111.135,23.73 111.459,23.518 111.735,23.233C111.889,23.074 111.993,22.88 112.029,22.651C112.071,22.395 112.143,22.144 112.191,21.889C112.276,21.436 112.394,20.991 112.527,20.55C112.587,20.35 112.707,20.19 112.847,20.046C113.018,19.87 113.239,19.829 113.472,19.861C113.588,19.878 113.665,19.967 113.732,20.063C113.945,20.364 113.989,20.71 114.023,21.064C114.07,21.562 114.009,22.052 113.96,22.545C113.944,22.705 113.934,22.867 113.919,23.028C113.888,23.36 113.847,23.691 113.827,24.023C113.806,24.37 113.8,24.718 113.796,25.065C113.792,25.418 113.803,25.771 113.742,26.121C113.644,26.681 113.558,27.243 113.45,27.801C113.39,28.113 113.295,28.418 113.216,28.727C113.188,28.836 113.152,28.943 113.131,29.054C113.083,29.318 112.975,29.558 112.858,29.796C112.697,30.127 112.543,30.461 112.332,30.764C112.302,30.807 112.27,30.85 112.237,30.895" style="fill:white;fill-rule:nonzero;"/>
            </g>
            <g transform="matrix(0.903614,0,0,1,0,0)">
                <path d="M106.915,19.547C106.663,19.675 106.504,19.889 106.382,20.135C106.18,20.546 106.037,20.979 105.931,21.422C105.826,21.865 105.721,22.309 105.643,22.758C105.534,23.38 105.447,24.006 105.358,24.632C105.325,24.869 105.313,25.11 105.29,25.349C105.247,25.788 105.231,26.229 105.147,26.663C105.102,26.89 105.037,27.109 104.918,27.311C104.791,27.527 104.606,27.673 104.385,27.779C104.075,27.929 103.755,28.045 103.413,28.101C102.978,28.173 102.546,28.267 102.109,28.323C101.371,28.418 100.629,28.489 99.889,28.572C99.455,28.621 99.02,28.652 98.583,28.634C98.039,28.612 97.496,28.579 96.974,28.4C96.543,28.252 96.176,28.007 95.864,27.678C95.834,27.647 95.805,27.611 95.786,27.572C95.641,27.285 95.532,26.989 95.538,26.659C95.543,26.331 95.543,26.002 95.533,25.674C95.519,25.224 95.495,24.773 95.471,24.323C95.439,23.726 95.401,23.129 95.369,22.532C95.329,21.788 95.293,21.044 95.257,20.3C95.249,20.129 95.244,19.957 95.243,19.785C95.242,19.664 95.265,19.641 95.385,19.625C95.482,19.612 95.581,19.611 95.676,19.59C95.856,19.55 95.996,19.442 96.108,19.3C96.315,19.037 96.557,18.809 96.81,18.591C96.836,18.569 96.858,18.543 96.882,18.518C97.074,18.317 97.091,18.125 96.929,17.887C96.957,17.871 96.982,17.852 97.01,17.843C97.703,17.617 98.418,17.501 99.139,17.415C99.749,17.342 100.362,17.337 100.974,17.32C101.773,17.299 102.572,17.279 103.37,17.255C104.13,17.234 104.89,17.26 105.649,17.297C105.813,17.305 105.957,17.352 106.09,17.464C106.272,17.618 106.431,17.791 106.569,17.981C106.784,18.278 106.987,18.586 107.111,18.937C107.142,19.024 107.183,19.108 107.217,19.195C107.24,19.253 107.028,19.49 106.915,19.547Z" style="fill:white;fill-rule:nonzero;"/>
            </g>
            <g transform="matrix(0.903614,0,0,1,0,0)">
                <path d="M114.417,26.543C114.431,26.452 114.445,26.372 114.455,26.291C114.479,26.087 114.514,25.883 114.521,25.679C114.531,25.416 114.632,25.183 114.73,24.949C114.877,24.601 115.011,24.25 115.082,23.877C115.155,23.494 115.147,23.107 115.139,22.72C115.13,22.289 115.123,21.858 115.108,21.427C115.091,20.962 115.095,20.493 114.998,20.037C114.878,19.471 114.733,18.91 114.435,18.405C114.243,18.081 114.036,17.765 113.836,17.445C113.814,17.41 113.794,17.374 113.761,17.318C113.833,17.318 113.88,17.315 113.927,17.319C114.321,17.348 114.702,17.43 115.062,17.598C115.206,17.666 115.331,17.757 115.434,17.88C115.79,18.307 115.995,18.793 116.032,19.351C116.054,19.679 116.102,20.004 116.124,20.331C116.178,21.108 116.286,21.883 116.264,22.663C116.254,23.039 116.235,23.42 116.164,23.789C116.072,24.273 115.954,24.755 115.78,25.22C115.753,25.294 115.722,25.367 115.703,25.442C115.634,25.706 115.475,25.918 115.307,26.123C115.259,26.181 115.191,26.231 115.122,26.263C114.913,26.358 114.698,26.443 114.486,26.531C114.469,26.538 114.45,26.537 114.417,26.543Z" style="fill:white;fill-rule:nonzero;"/>
            </g>
            <g transform="matrix(0.903614,0,0,1,0,0)">
                <path d="M105.703,16.608C105.551,16.608 105.415,16.612 105.279,16.607C105.064,16.597 104.849,16.576 104.634,16.569C104.543,16.567 104.493,16.537 104.463,16.449C104.263,15.861 104.058,15.274 103.858,14.686C103.809,14.542 103.773,14.394 103.732,14.248C103.664,14.008 103.669,13.763 103.699,13.519C103.723,13.325 103.827,13.172 103.986,13.058C104.156,12.935 104.32,12.934 104.487,13.061C104.689,13.215 104.832,13.419 104.94,13.648C105.131,14.053 105.27,14.475 105.37,14.911C105.444,15.231 105.527,15.548 105.591,15.87C105.639,16.108 105.665,16.352 105.703,16.608Z" style="fill:white;fill-rule:nonzero;"/>
            </g>
            <g transform="matrix(0.903614,0,0,1,0,0)">
                <path d="M111.299,22.257C111.277,22.048 111.255,21.839 111.232,21.63C111.181,21.162 111.107,20.699 110.945,20.254C110.892,20.107 110.86,19.952 110.824,19.8C110.681,19.206 110.402,18.674 110.075,18.165C110.039,18.107 110.003,18.048 109.963,17.992C109.92,17.934 109.926,17.884 109.977,17.837C110.154,17.675 110.33,17.513 110.51,17.354C110.537,17.33 110.58,17.319 110.617,17.313C110.66,17.306 110.705,17.309 110.749,17.309C111.036,17.305 111.034,17.306 111.201,17.545C111.373,17.792 111.484,18.07 111.601,18.344C111.74,18.673 111.872,19.005 112.008,19.336C112.021,19.367 112.032,19.4 112.043,19.432C112.137,19.715 112.133,19.712 111.972,19.966C111.91,20.064 111.855,20.172 111.823,20.283C111.667,20.839 111.495,21.391 111.39,21.96C111.372,22.059 111.353,22.158 111.335,22.258C111.323,22.257 111.311,22.257 111.299,22.257Z" style="fill:white;fill-rule:nonzero;"/>
            </g>
            <g transform="matrix(0.903614,0,0,1,0,0)">
                <path d="M111.868,13.266C111.868,13.365 111.883,13.45 111.865,13.527C111.813,13.756 111.768,13.99 111.684,14.208C111.514,14.646 111.355,15.09 111.112,15.496C110.973,15.728 110.823,15.951 110.635,16.148C110.561,16.226 110.5,16.314 110.432,16.398C110.217,16.666 110.003,16.933 109.787,17.2C109.675,17.338 109.516,17.391 109.352,17.426C109.224,17.452 109.129,17.369 109.11,17.23C109.094,17.108 109.131,16.997 109.181,16.889C109.408,16.4 109.641,15.914 109.861,15.421C110.1,14.885 110.435,14.417 110.854,14.011C111.069,13.804 111.302,13.615 111.533,13.425C111.622,13.352 111.724,13.29 111.868,13.266Z" style="fill:white;fill-rule:nonzero;"/>
            </g>
            <g transform="matrix(0.903614,0,0,1,0,0)">
                <path d="M111.191,26.701C111.305,26.687 111.399,26.754 111.48,26.831C111.571,26.917 111.529,27.136 111.407,27.222C111.315,27.287 111.216,27.341 111.12,27.399C111.065,27.432 111.014,27.42 110.974,27.375C110.893,27.284 110.81,27.193 110.738,27.095C110.662,26.989 110.692,26.879 110.803,26.807C110.896,26.747 111.057,26.702 111.191,26.701Z" style="fill:rgb(21,18,18);fill-rule:nonzero;"/>
            </g>
            <g transform="matrix(0.903614,0,0,1,0,0)">
                <path d="M112.697,25.851C112.695,26.011 112.563,26.14 112.405,26.138C112.246,26.135 112.117,26 112.123,25.842C112.129,25.683 112.276,25.546 112.434,25.552C112.58,25.558 112.699,25.693 112.697,25.851Z" style="fill:rgb(21,18,18);fill-rule:nonzero;"/>
            </g>
            <g transform="matrix(0.903614,0,0,1,0,0)">
                <path d="M108.756,25.838C108.754,25.708 108.889,25.57 109.016,25.572C109.152,25.574 109.293,25.722 109.296,25.865C109.299,26.006 109.181,26.126 109.037,26.128C108.871,26.13 108.759,26.015 108.756,25.838Z" style="fill:rgb(21,18,18);fill-rule:nonzero;"/>
            </g>
            <g transform="matrix(0.903614,0,0,1,0,0)">
                <path d="M99.688,26.432C99.716,25.7 99.742,24.991 99.769,24.283C99.831,24.116 99.74,24.013 99.585,23.929C99.511,23.889 99.448,23.832 99.383,23.781C99.296,23.712 99.228,23.633 99.266,23.523C99.307,23.406 99.404,23.331 99.537,23.291C99.569,23.281 99.604,23.278 99.638,23.277C99.931,23.261 100.224,23.236 100.517,23.234C100.777,23.232 100.896,23.4 100.793,23.607C100.692,23.812 100.512,23.964 100.296,24.079C100.224,24.117 100.184,24.156 100.182,24.226C100.181,24.319 100.177,24.413 100.18,24.506C100.184,24.663 100.191,24.821 100.198,24.978C100.215,25.347 100.231,25.716 100.252,26.085C100.256,26.17 100.275,26.254 100.295,26.337C100.324,26.46 100.339,26.474 100.481,26.463C100.705,26.445 100.929,26.422 101.152,26.395C101.497,26.352 101.84,26.304 102.184,26.258C102.222,26.253 102.26,26.243 102.299,26.238C102.578,26.204 102.71,26.039 102.773,25.824C102.873,25.485 102.908,25.138 102.941,24.791C102.977,24.419 102.992,24.044 103.041,23.673C103.068,23.473 103.145,23.277 103.205,23.08C103.225,23.015 103.262,22.954 103.288,22.89C103.35,22.739 103.44,22.607 103.584,22.501C103.681,22.43 103.766,22.347 103.861,22.274C103.938,22.214 104.028,22.186 104.133,22.219C104.323,22.279 104.376,22.477 104.232,22.602C104.141,22.68 104.05,22.757 103.95,22.826C103.737,22.973 103.645,23.169 103.648,23.396C103.651,23.59 103.678,23.785 103.703,23.979C103.754,24.377 103.779,24.774 103.739,25.174C103.709,25.47 103.675,25.766 103.575,26.052C103.543,26.145 103.5,26.236 103.446,26.321C103.357,26.462 103.261,26.599 103.112,26.705C102.96,26.813 102.79,26.886 102.6,26.912C102.058,26.985 101.514,27.048 100.972,27.118C100.482,27.181 99.993,27.158 99.508,27.089C98.929,27.007 98.351,26.912 97.775,26.813C97.589,26.781 97.407,26.725 97.23,26.664C97.153,26.638 97.08,26.581 97.028,26.523C96.788,26.256 96.644,25.953 96.605,25.614C96.559,25.218 96.567,24.824 96.631,24.431C96.663,24.23 96.699,24.028 96.747,23.829C96.816,23.545 96.794,23.262 96.756,22.979C96.74,22.864 96.687,22.76 96.573,22.683C96.495,22.631 96.454,22.56 96.496,22.47C96.539,22.377 96.635,22.319 96.747,22.324C96.886,22.33 97,22.368 97.075,22.484C97.212,22.695 97.29,22.917 97.313,23.159C97.341,23.441 97.243,23.705 97.186,23.976C97.154,24.13 97.127,24.285 97.106,24.441C97.084,24.596 97.05,24.754 97.059,24.909C97.072,25.137 97.098,25.368 97.159,25.59C97.196,25.729 97.297,25.859 97.387,25.984C97.453,26.076 97.565,26.132 97.689,26.154C97.88,26.188 98.073,26.218 98.266,26.245C98.677,26.303 99.088,26.358 99.5,26.414C99.561,26.422 99.623,26.426 99.688,26.432Z" style="fill:rgb(218,31,39);fill-rule:nonzero;"/>
            </g>
            <g transform="matrix(0.903614,0,0,1,0,0)">
                <path d="M104.729,19.368C104.712,19.607 104.626,19.756 104.446,19.789C104.338,19.808 104.216,19.816 104.112,19.787C103.839,19.712 103.592,19.584 103.429,19.337C103.264,19.088 103.059,18.882 102.806,18.724C102.632,18.615 102.6,18.437 102.632,18.257C102.664,18.08 102.782,17.96 102.967,17.929C103.092,17.909 103.22,17.894 103.346,17.894C103.535,17.894 103.695,17.968 103.829,18.108C103.896,18.177 103.978,18.235 104.061,18.285C104.323,18.444 104.55,18.636 104.644,18.939C104.686,19.078 104.701,19.225 104.729,19.368Z" style="fill:rgb(21,18,18);fill-rule:nonzero;"/>
            </g>
            <g transform="matrix(0.903614,0,0,1,0,0)">
                <path d="M101.07,20.994C101.081,20.996 101.122,20.996 101.158,21.009C101.342,21.076 101.527,21.14 101.708,21.216C101.838,21.27 101.893,21.409 101.85,21.532C101.807,21.651 101.684,21.725 101.555,21.692C101.305,21.627 101.079,21.512 100.895,21.327L100.885,21.316C100.838,21.253 100.777,21.191 100.82,21.105C100.865,21.017 100.947,20.989 101.07,20.994Z" style="fill:rgb(21,18,18);fill-rule:nonzero;"/>
            </g>
            <g transform="matrix(0.903614,0,0,1,0,0)">
                <path d="M98.623,21.721C98.541,21.706 98.462,21.7 98.389,21.677C98.297,21.649 98.242,21.576 98.236,21.481C98.229,21.392 98.274,21.317 98.353,21.276C98.518,21.191 98.698,21.166 98.88,21.181C98.99,21.19 99.07,21.293 99.079,21.403C99.089,21.519 99.025,21.627 98.907,21.664C98.815,21.693 98.717,21.703 98.623,21.721Z" style="fill:rgb(21,18,18);fill-rule:nonzero;"/>
            </g>
        </g>
    </g>
</svg>
